<?xml version="1.0" encoding="utf-8"?>
<!-- Generator: Adobe Illustrator 25.2.3, SVG Export Plug-In . SVG Version: 6.00 Build 0)  -->
<svg version="1.1" xmlns="http://www.w3.org/2000/svg" xmlns:xlink="http://www.w3.org/1999/xlink" x="0px" y="0px"
	 viewBox="0 0 269.3 181.4" style="enable-background:new 0 0 269.3 181.4;" xml:space="preserve">
<style type="text/css">
	.st0{fill:#00437B;}
	.st1{fill:#FFFFFF;}
</style>
<g id="Black_Standart_Blue">
</g>
<g id="Black_Posol_Fish_Front">
</g>
<g id="Black_Production_Fish_Front_1_">
	<path d="M255.1,181.4H14.2c-7.8,0-14.2-6.3-14.2-14.2V14.2C0,6.3,6.3,0,14.2,0h240.9c7.8,0,14.2,6.3,14.2,14.2v153.1
		C269.3,175.1,262.9,181.4,255.1,181.4z"/>
	<path class="st1" d="M249.3,22.5c0,0.4-0.3,0.8-0.8,0.8c-0.4,0-0.8-0.3-0.8-0.8c0-0.4,0.3-0.8,0.8-0.8
		C249,21.7,249.3,22.1,249.3,22.5z M254.8,24.3l-0.1,0.2c-1.8,3-4.7,5.2-8.4,6.4c-0.3,0.8-0.7,1.7-1.5,2.7c-1,1.2-2.1,1.8-3.3,1.8
		c0,0-0.1,0-0.2,0c-1.2,0-2.1-0.6-2.6-1c-1,0-1.9-0.5-2.4-1.2c-0.2-0.3-0.4-0.6-0.4-0.9c-0.5,0-1.1,0-1.6-0.1
		c-3.1-0.2-6.4-0.6-10.1-1.3c-1,2.5-2.7,4-3,4.2l-0.9,0.7c-0.5,0.4-1,0.6-1.6,0.6c-0.4,0-0.9-0.1-1.3-0.3c-0.9-0.5-1.4-1.6-1.3-2.6
		l0.2-1c0.1-0.5-0.7-1.4-1.2-1.8l-0.6-0.4c-0.6-0.4-1-1.1-1.1-1.9c-0.2-0.1-0.4-0.1-0.5-0.1c0,0-0.1,0-0.2,0c-1,0-2.4,1-3.7,1.9
		c-1.8,1.2-3.6,2.5-5.7,2.5c-0.1,0-0.2,0-0.2,0c-1.2-0.1-2.2-0.5-2.8-1.4c-1.4-1.8-0.5-3.9,0.3-5.6c0.3-0.7,0.8-1.8,0.8-2.3
		c0-0.5-0.4-2-0.6-2.8c-0.7-2.4-1.4-4.7,0.4-6.3c0.7-0.6,1.5-0.9,2.4-0.9c0.2,0,0.4,0,0.6,0c2.1,0.3,3.1,1.1,4.2,1.8
		c1,0.7,2.3,1.7,5.8,2.9l0.2,0.1c0.7,0.2,1.3,0.4,1.9,0.4c0.8,0,1.6-0.3,2.5-0.7c-0.1,0-0.2-0.1-0.4-0.1c-1.7-0.5-4.2-1.2-3.6-3.9
		c0.1-0.5,0.6-2,2.5-2.4c0.1-0.2,0.2-0.4,0.2-0.5c0.5-1.3,1.3-3.3,3.6-3.9c0.3-0.1,0.7-0.1,1-0.1c1.1,0,2.3,0.4,3.6,1.3
		c1.8,1.3,3.1,2.9,4,4.8c0.9-0.1,1.7-0.2,2.7-0.2c1,0,2.1,0.1,3.2,0.2c13.1,1.7,18.5,7.5,19.1,8.2l0.2,0.2
		C255.2,22.1,255.4,23.3,254.8,24.3z M252.6,22.9l-0.2-0.2c-0.2-0.2-5.1-5.7-17.4-7.3c-3-0.4-5.3-0.2-7.2,0.4
		c-0.3-1.7-1.2-3.9-3.7-5.7v0c-1-0.7-1.8-1-2.5-0.8c-1,0.2-1.4,1.3-1.8,2.3c-0.5,1.3-0.9,2.1-1.7,2.1c-0.3,0-0.8,0-0.9,0.4
		c-0.1,0.4,0.3,0.5,1.8,1c1.6,0.5,4.3,1.3,5.3,2.2c-0.8,0.5-1.6,1-2.4,1.4c-2.7,1.7-4.8,3.1-8.6,1.8l-0.2-0.1
		c-3.9-1.4-5.4-2.5-6.5-3.3c-0.9-0.7-1.6-1.1-3-1.4c-0.5-0.1-0.7,0.1-0.9,0.2c-0.6,0.5-0.3,1.7,0.3,3.7c0.4,1.3,0.8,2.7,0.7,3.7
		c0,1-0.6,2.2-1,3.2c-0.6,1.3-1,2.4-0.6,2.9c0.1,0.2,0.4,0.4,0.9,0.4c0,0,0.1,0,0.1,0c1.3,0,2.7-1,4.2-2c1.7-1.1,3.4-2.3,5.1-2.4
		l0,0c0.3,0,0.6,0,0.8,0.1c0.4,0.1,1.2,0.3,2.3,0.6c0.8,0.2,1.8,0.5,3,0.8c-0.6,0.4-1.2,0.7-1.9,0.9l-0.7,0.2l0.6,0.4
		c0,0,2.6,1.9,2.2,4.3l-0.2,1l0.9-0.7c0.1-0.1,2.5-2.1,2.7-5.2c3.6,0.8,7.9,1.6,12.1,1.8c0.8,0,1.6,0.1,2.3,0.1
		c1.4,0,2.8-0.1,4.1-0.2c-0.5,0.4-1.1,0.8-1.5,1.1c-0.8,0.6-1,0.7-0.8,1c0.2,0.3,0.6,0.1,0.8,0.1c0.3-0.1,0.5,0,0.9,0.4
		c0.3,0.3,0.7,0.7,1.3,0.7c0,0,0,0,0.1,0c0.5,0,0.9-0.3,1.4-0.9c1-1.2,1.2-2.3,1.2-3c3.9-1,6.8-2.9,8.5-5.8L252.6,22.9z"/>
	<path class="st1" d="M25.2,13.4c1.3,3.1-0.2,7.4-3.7,8.2c11.8,7.3-9.8,19.6-6-5.6c0.1-1.7,1.6-4.9,3.4-3.1c-0.3,0.8-1,1.5-1,2.5
		c-2.5,25.9,11.5,9.6,0.8,6.3l-0.4-0.3c0.5-0.9,2.3-0.3,3-0.9c3.4-1.7,2.9-7.2,0-9.2c-2-1.7-5,1.4-6.7-0.4
		C17.6,8.3,23.9,9.2,25.2,13.4z M73.1,26.6c-0.2,3.8-6.9,6.2-7.8,1.8c-2.7,4.6-5.9,2.2-5.1-2.4c-0.8,0.5-1.3,0.9-2.1,0.9
		c-0.2,1,0.5,2.5-0.3,3.4c-0.5,0.4-2.3,0.4-2.3-0.6c0-0.3,0-1.2,0.1-1.7c-1.1,1.9-4.8,2.3-5.6,0c-1.6,4.7-7.3,4.1-6.3-1.3
		c-0.9,1.7-4,4.6-5.3,1.9c-1.4,3.4-5.6,1.6-5.3-1.7c-1.5,6-7.9,4.4-5.4-1.4c0.6-1.3,3.3-1.7,3.7,0c-0.1,0.6-0.9,0.4-1.1,0
		c-1.4-0.7-1.8,4.1-0.4,4c3.2,0.2,2.8-12.1,6-8.5c-0.1,2.3-0.7,5.4-0.2,7.8c0.8,1.8,2.3-1.4,2.6-2.2c0.5-2.9,3.3-7.7,6.7-5.6
		c0.4-0.6,2-0.6,2.3,0.1c-0.2,2.5-1.2,5.6-0.9,8.2c0.1,0.4,0.2,0.6,0.4,0.6c1.5-0.3,2.5-2.5,2.9-3.8c0,0,0,0,0,0
		c-0.3-2.5,1.2-8.2,4.6-5.6c0.8,0.8,0.8,3.9-0.9,2.4c0.3-0.7-0.1-2.8-0.9-1.3c-0.6,1.8-0.5,3.9-0.3,5.8c0.4,2.8,3,0.2,3.4-1.2
		c0.5-1.7,0.2-3.9,0.8-5.5c3.5-1.6,1.5,3.6,1.8,5.3c1,0,1.7-1,2.3-1.8c0-1.3,0.8-5.7,2.8-3.7c-0.6,1.6-0.8,3.6-0.9,5.3
		c-0.5,4.1,1.4,4.1,2.7,0.6c0.5-1.9,0.8-3.9,2.1-5.3c1.8-1.9,4.3-0.2,3.3,2.2c-0.3,1.3-1.2,2.8-2.7,2.9c-0.9,5.6,3.6,3.5,4.4-0.2
		C72.6,25.8,73.2,26.1,73.1,26.6z M67.8,25.6c1.2-0.8,2-2.9,1.4-4.2C68.4,22.6,67.9,24.2,67.8,25.6z M44.5,22.3
		c-1.8-4.3-5.8,4.9-4.4,6.2C42.2,27.6,43.6,24.3,44.5,22.3z M86,23.9c1.6,8.3-9,10.1-7.1,0.4c0.7-12.8,11-10.8,3.9-3.3
		C84.4,21,85.6,22.4,86,23.9z M82,20.7c0.7-0.7,3-3.9,1.9-4.6C82.6,16.8,82.4,19.3,82,20.7z M84.5,25.1c0-1.4-1-3.7-2.7-3
		c-0.2,2.1-1.1,5.9,0.6,7.4C84.1,29.3,84.4,26.6,84.5,25.1z M105.1,21.4c0.4,3-0.9,8.4-5,7.5c-0.3,2.1-0.5,4.2-0.3,6.4
		c0.1,0.7,0.2,1.4-0.3,1.9c-0.5,0.4-2.3,0.6-2.4-0.4c-0.2-2.6-0.4-5.3-0.4-8c-1.5,3.3-5.8,2.5-5.9-1.2c-0.4,1.4-2.6,2.1-3.5,1
		c-1-0.8,0-8.7,2-6.6c-0.1,1.8-1.3,4.3-0.6,5.9c0.6,0.1,1-1,1.4-1.5c0.8-1.3,0.8-3,1.2-4.3c0.3-0.7,2.2-0.7,2.2,0.3
		c0.1,2.2-0.9,5.4,0.7,7.2c1.5-0.4,2.1-2.5,2.6-3.8c0.2-1.8-1.2-6.3,2.1-5.3c0.3,0.1,0.5,0.3,0.5,0.6c0,1.1,0,2.6,0,3.7
		c0.5-1.5,1.1-3.4,2.4-4.4C102.8,19.5,105,19.7,105.1,21.4z M103.7,21.4c-0.8-2.9-3.3,5.2-3.3,5.9C102.9,29.5,103.9,22.9,103.7,21.4
		z M113,23.5c0.4,2.2,0.1,5-1.7,6.6c-1.7,1.4-4.7,0.4-4.9-2c-0.3-2.4-0.3-7.8,3.3-7.1C111.4,19.7,112.8,22,113,23.5z M111.8,25.3
		c0-1.2-0.2-2.7-1-3.7c-0.2,0.2-0.6,0.3-0.9,0.2l-0.2,0.1c-1,2.1-1.5,5.7-0.2,7.6C111.2,29.2,111.7,26.8,111.8,25.3z M121.3,14.6
		c0.7,1.9-2.4,1.7-3.5,1.8c3.9,3,6.1,16.1-1.7,13.8c-3.4-2.4-1.7-9.5,2.8-9.3c-0.8-1.7-1.7-3.3-3-4.6c-1-0.2-1.4-1.7,0-1.7
		c1.4,0.6,3.6,0.3,4.9-0.6C121,14,121.2,14.2,121.3,14.6z M119.3,22c-2.4,0.2-2.5,3.5-2.4,5.4c-0.1,1.2,0.9,3.2,2,1.7
		C120,27,119.8,24.3,119.3,22L119.3,22z M153.3,28.9c2,7.4-7.7,5.5-1.9,1.3l-0.1-0.8c-1.8,2-4.6,0.1-4.2-2.3
		c-0.7,1.9-3.7,3.5-4.9,1.4c-1.3,3.6-6,3.2-6.1-0.8c-0.4,1.5-3.2,2.3-3.8,0.6c-2.6,4.6-6,2.4-5.1-2.3c-0.8,0.5-1.3,0.9-2.1,0.9
		c-0.2,1,0.5,2.5-0.3,3.4c-0.5,0.4-2.3,0.4-2.3-0.6c0.2-2.8,0.1-6.4,0.8-9.1c3.5-1.6,1.5,3.6,1.8,5.3c1,0,1.7-1,2.3-1.8
		c0-1.3,0.8-5.7,2.8-3.7c-0.4,1-2.3,10.4,0.6,8.1c2.1-1.6,1-5.6,3-6.8c1.6-0.2,0.2,2.4,0.2,3.4c-1.1,7.1,2.7-0.5,2.5-3
		c0.2-0.5,1.4-0.7,1.9-0.3c0.9,1.8-0.4,4.3,0.3,6.4c0.2,2.4,1.5,1.4,2.3-0.1c1.2-2.3,1.3-4.7,2.1-7.1c0.5-0.2,1.5-0.5,1.6,0.2
		c-2.6,9.6,0.6,9,2.8,0.4c0.1-0.4,0-1,0.5-1.3c0.4-0.3,1.6-0.3,1.6,0.5c0,2.7-1,5.4-0.4,8.1c0.8,1.5,1.7-1,1.7-1.7
		c0.2-1,1.3-0.8,1.9-0.2C153.1,27.7,153.2,28.3,153.3,28.9z M151.5,30.9c-0.7,0.3-1.8,2.1-0.6,2.3C152,33.1,151.4,31.9,151.5,30.9z
		 M175,23.9c0.6,2.3-0.1,5.1-2.1,6.4c-2,1.4-5,0.1-5-2.4c-0.8,1.4-3.4,2-4.3,0.6c-1.1-1.9,0-4.3-0.1-6.4c-1.6,2-2.3,5.2-2.1,7.7
		c-0.1,0.5-0.5,0.5-1,0.5c-3.1-0.3-1.1-5.8-1.2-7.8c-1.1,1.7-2.1,4.4-2.1,6.4c-4.4,2.3-2.6-5.8-2-7.9c0.3-0.7,1.1-0.5,1.8-0.4
		c1.1,0.7,0,2.6,0,3.7c0.3-2.6,4.2-4.9,4.3-1c0.6-2.7,4.3-3.1,4.4,0c-0.3,2.6-0.7,7.3,2.2,2.4c0.2-14.6,11.4-12.7,4-4.9
		C173.4,21,174.6,22.4,175,23.9z M171,20.7c0.7-0.7,3-3.9,1.9-4.6C171.6,16.8,171.4,19.3,171,20.7z M173.5,25.1c0-1.4-1-3.7-2.7-3
		c-0.2,2.1-1.1,5.9,0.6,7.4C173.1,29.3,173.4,26.6,173.5,25.1z M182.8,24.7c0,1.8-0.3,4.2-1.9,5.4c-1.7,1.4-4.7,0.4-4.9-2
		c-0.3-2.4-0.3-7.8,3.3-7.1C181.4,19.5,182.8,23,182.8,24.7z M181.4,25.3c0-1.2-0.2-2.7-1-3.7c-0.2,0.2-0.6,0.3-0.9,0.2l-0.2,0.1
		c-1,2.1-1.5,5.7-0.2,7.6C180.8,29.2,181.3,26.8,181.4,25.3z"/>
</g>
<g id="Black_Production_Front">
</g>
<g id="Black_Standart_Back">
</g>
<g id="Black_Standart_Front">
</g>
<g id="Guides">
</g>
</svg>
