<?xml version="1.0" encoding="utf-8"?>
<!-- Generator: Adobe Illustrator 25.2.3, SVG Export Plug-In . SVG Version: 6.00 Build 0)  -->
<svg version="1.1" xmlns="http://www.w3.org/2000/svg" xmlns:xlink="http://www.w3.org/1999/xlink" x="0px" y="0px"
	 viewBox="0 0 269.3 181.4" style="enable-background:new 0 0 269.3 181.4;" xml:space="preserve">
<style type="text/css">
	.st0{fill:#00437B;}
	.st1{fill:#FFFFFF;}
</style>
<g id="Black_Standart_Blue">
</g>
<g id="Black_Posol_Fish_Front">
	<path class="st0" d="M255.1,181.4H14.2c-7.8,0-14.2-6.3-14.2-14.2V14.2C0,6.3,6.3,0,14.2,0h240.9c7.8,0,14.2,6.3,14.2,14.2v153.1
		C269.3,175.1,262.9,181.4,255.1,181.4z"/>
	<path class="st1" d="M232.1,22.5c0,0.4-0.3,0.8-0.8,0.8c-0.4,0-0.8-0.3-0.8-0.8c0-0.4,0.3-0.8,0.8-0.8
		C231.8,21.7,232.1,22.1,232.1,22.5z M237.5,24.3l-0.1,0.2c-1.8,3-4.7,5.2-8.4,6.4c-0.3,0.8-0.7,1.7-1.5,2.7c-1,1.2-2.1,1.8-3.3,1.8
		c0,0-0.1,0-0.2,0c-1.2,0-2.1-0.6-2.6-1c-1,0-1.9-0.5-2.4-1.2c-0.2-0.3-0.4-0.6-0.4-0.9c-0.5,0-1.1,0-1.6-0.1
		c-3.1-0.2-6.4-0.6-10.1-1.3c-1,2.5-2.7,4-3,4.2l-0.9,0.7c-0.5,0.4-1,0.6-1.6,0.6c-0.4,0-0.9-0.1-1.3-0.3c-0.9-0.5-1.4-1.6-1.3-2.6
		l0.2-1c0.1-0.5-0.7-1.4-1.2-1.8l-0.6-0.4c-0.6-0.4-1-1.1-1.1-1.9c-0.2-0.1-0.4-0.1-0.5-0.1c0,0-0.1,0-0.2,0c-1,0-2.4,1-3.7,1.9
		c-1.8,1.2-3.6,2.5-5.7,2.5c-0.1,0-0.2,0-0.2,0c-1.2-0.1-2.2-0.5-2.8-1.4c-1.4-1.8-0.5-3.9,0.3-5.6c0.3-0.7,0.8-1.8,0.8-2.3
		c0-0.5-0.4-2-0.6-2.8c-0.7-2.4-1.4-4.7,0.4-6.3c0.7-0.6,1.5-0.9,2.4-0.9c0.2,0,0.4,0,0.6,0c2.1,0.3,3.1,1.1,4.2,1.8
		c1,0.7,2.3,1.7,5.8,2.9L197,18c0.7,0.2,1.3,0.4,1.9,0.4c0.8,0,1.6-0.3,2.5-0.7c-0.1,0-0.2-0.1-0.4-0.1c-1.7-0.5-4.2-1.2-3.6-3.9
		c0.1-0.5,0.6-2,2.5-2.4c0.1-0.2,0.2-0.4,0.2-0.5c0.5-1.3,1.3-3.3,3.6-3.9c0.3-0.1,0.7-0.1,1-0.1c1.1,0,2.3,0.4,3.6,1.3
		c1.8,1.3,3.1,2.9,4,4.8c0.9-0.1,1.7-0.2,2.7-0.2c1,0,2.1,0.1,3.2,0.2c13.1,1.7,18.5,7.5,19.1,8.2l0.2,0.2
		C238,22.1,238.1,23.3,237.5,24.3z M235.3,22.9l-0.2-0.2c-0.2-0.2-5.1-5.7-17.4-7.3c-3-0.4-5.3-0.2-7.2,0.4
		c-0.3-1.7-1.2-3.9-3.7-5.7v0c-1-0.7-1.8-1-2.5-0.8c-1,0.2-1.4,1.3-1.8,2.3c-0.5,1.3-0.9,2.1-1.7,2.1c-0.3,0-0.8,0-0.9,0.4
		c-0.1,0.4,0.3,0.5,1.8,1c1.6,0.5,4.3,1.3,5.3,2.2c-0.8,0.5-1.6,1-2.4,1.4c-2.7,1.7-4.8,3.1-8.6,1.8l-0.2-0.1
		c-3.9-1.4-5.4-2.5-6.5-3.3c-0.9-0.7-1.6-1.1-3-1.4c-0.5-0.1-0.7,0.1-0.9,0.2c-0.6,0.5-0.3,1.7,0.3,3.7c0.4,1.3,0.8,2.7,0.7,3.7
		c0,1-0.6,2.2-1,3.2c-0.6,1.3-1,2.4-0.6,2.9c0.1,0.2,0.4,0.4,0.9,0.4c0,0,0.1,0,0.1,0c1.3,0,2.7-1,4.2-2c1.7-1.1,3.4-2.3,5.1-2.4
		l0,0c0.3,0,0.6,0,0.8,0.1c0.4,0.1,1.2,0.3,2.3,0.6c0.8,0.2,1.8,0.5,3,0.8c-0.6,0.4-1.2,0.7-1.9,0.9l-0.7,0.2l0.6,0.4
		c0,0,2.6,1.9,2.2,4.3l-0.2,1l0.9-0.7c0.1-0.1,2.5-2.1,2.7-5.2c3.6,0.8,7.9,1.6,12.1,1.8c0.8,0,1.6,0.1,2.3,0.1
		c1.4,0,2.8-0.1,4.1-0.2c-0.5,0.4-1.1,0.8-1.5,1.1c-0.8,0.6-1,0.7-0.8,1c0.2,0.3,0.6,0.1,0.8,0.1c0.3-0.1,0.5,0,0.9,0.4
		c0.3,0.3,0.7,0.7,1.3,0.7c0,0,0,0,0.1,0c0.5,0,0.9-0.3,1.4-0.9c1-1.2,1.2-2.3,1.2-3c3.9-1,6.8-2.9,8.5-5.8L235.3,22.9z"/>
	<path class="st1" d="M39.1,21.2c12.5,8.3-8.4,19.3-7.1-0.8c0-2,0.1-9.4,2.9-9.4c1.8,0,1.4,0.8,0.6,2c-1.1,3.8-1.9,16,2.6,17.6
		c1.5,0,2.4-3,2.4-4.1c0.1-3-2.6-4.3-5-5.4c0.1-0.5,0.8-0.6,1.2-0.6c3.3,0,4.8-2.5,4.8-5.3c-0.3-5.4-3.8-6.9-8.7-5.2
		c-0.4,0-1.5-0.2-1.5-0.7c0-1,4.5-1.5,5.3-1.5C44.6,7.3,46.6,19.2,39.1,21.2z M110.9,26.8c-0.4,5.1-7,7.1-7.5,1.2
		c-0.5,1.6-3.2,2.5-4.1,1c-1.5,4-6.8,3.2-6.8-1c-0.5,1.7-3.5,2.5-4.2,0.7c-2.9,5.1-6.7,2.7-5.7-2.6c-1.6,1-1.7,0.9-2.4,1
		c-0.3,1.3,1,4.1-1.4,4c-1.8,0-1.5-1.1-1.4-2.8c-1.1,2.1-5.6,2.5-6.3-0.1c-1.9,5.4-8.3,4.3-7.1-1.4c-1,1.9-4.3,5-6,2.1
		c-1.6,3.8-6.4,1.5-5.9-2c-3.5,10.5-11.2-1.1-3.7-2.8c0.9-0.2,2.7,1.5,1,1.7c-0.5,0-0.4-0.5-0.9-0.6c-1.3-0.3-1.8,4.7-0.2,4.6
		c3.2-0.1,3.3-10.2,5.4-10.2c0.6,0,1.3,0,1.3,0.7c0,0.7-1.1,9.3,0.3,9.3c3.5-1.6,3.3-12.7,9.9-9.4c0.4-0.7,2.3-0.7,2.6,0.1
		c0,0.9-2,9.7-0.5,9.8c1.1,0.1,2.9-2.7,3.3-4.2c0,0,0,0,0,0c0-2.1,0.3-7,3.4-7c1.6,0,2.4,1.1,2.4,2.5c0,1.2-0.5,1.8-1.6,0.9
		c0.1-0.7,0.2-2.1-0.4-2.1c-1.1,0-1.1,3.4-1.1,5.1c-0.4,4.8,2.7,4,4.2,0.3c0.5-3.1-0.4-6.1,1.9-6.1c2.5,0.4,0.4,4.5,0.8,6.3
		c1.1,0,2-1.2,2.6-2c0.1-1.1,0.4-4.7,2-4.7c0.6,0,1.4,0.2,1,0.9c-0.8,2.6-1.5,9.1-0.3,9.1c3.5-0.1,2.3-10,5.3-7.7
		c0,0.8-1.5,6.1-0.6,6.6c0.6,0.4,2.6-3.2,2.6-5.2c-0.5-1.8,2.3-2.9,2.7-1c-0.7,4.6,0.1,13.1,3.7,3.7c0.2-1.9,0.7-4.6,1.7-4.6
		c2.2-0.5-1,6.2,0.3,7c0.6,0.4,2.6-3.2,2.6-5.2c-0.5-1.8,2.3-2.9,2.7-1c-0.7,5,0.1,13.1,3.7,3.5C110.5,25.7,111,26.1,110.9,26.8z
		 M64.9,22c-2.3-5.1-6.6,6.9-4.9,6.9C61.4,28.9,64.2,24.1,64.9,22z M103.4,19.7c2.1,0.4,4.2-3.1,1.6-2.9c-0.5,0.5-0.5,1.7-1.6,1.7
		c-0.9,0-0.5-1.7-1.5-1.7C99.8,17.2,102,20,103.4,19.7z M136.2,24.7c0.7,4.9-4.9,10.3-7.5,4.1c-0.9,3.1-5.3,4.3-5.7,0.6
		c0-2.9,1.9-8.4,1.1-8.4c-1.1,0-2.6,5.9-3.3,8.9c-0.1,0.7-0.8,0.8-1.4,0.8c-3.4,0.7-2.5-9.8,0.3-9.6c2.7-0.2,0.5,3,0.7,4.4
		c0.4-1.7,1.6-5.9,3.9-5.9c2,0,2.2,2.2,2.2,3.6c0,2-1.3,6.4-0.4,6.4c3.6-0.9,1.2-10.3,6.2-9.2C134.7,18.8,136.3,22.9,136.2,24.7z
		 M134.7,25.4c0-1.2-0.3-3.3-1.1-4.1c-0.3,0.2-0.7,0.4-1,0.2l-0.2,0.1C129.7,26,132.5,36.1,134.7,25.4z M151.8,24.7
		c0,2.6-0.7,6.8-4.3,6.8c-2.1,0-3-1.4-3.3-3.1c-1.8,3.2-7.4,2-6.7-2.1c0-2.1,0.3-7,3.4-7c2.5-0.6,3.5,5.1,0.7,3.3
		c0.1-0.7,0.2-2.1-0.4-2.1c-1.1,0-1.1,3.4-1.1,5.1c-0.4,4.3,2.3,4.4,4,0.7c0-2.4,0.7-6.7,3.8-5.8C150.3,18.8,151.9,22.9,151.8,24.7z
		 M150.3,25.4c0-1.2-0.3-3.3-1.1-4.1c-0.3,0.2-0.7,0.4-1,0.2l-0.2,0.1C145.3,26,148.1,36.1,150.3,25.4z M166,25.7
		c-0.3,1.2-1.7,4.3-2.8,4.3c-1.4,0-0.3-8.6-0.3-9.3c0-0.7-0.7-0.7-1.3-0.7c-2.1,0-2.2,10.1-5.4,10.2c-1.6,0.1-1.1-4.9,0.2-4.6
		c0.4,0.1,0.3,0.6,0.9,0.6c1.6-0.1-0.1-1.9-1-1.7c-7.5,1.6,0.1,13.3,3.7,2.8c0.3,6.2,6.7,4.4,6.8-0.8
		C166.6,25.9,166.5,25.7,166,25.7z"/>
</g>
<g id="Black_Production_Fish_Front_1_">
</g>
<g id="Black_Production_Front">
</g>
<g id="Black_Standart_Back">
</g>
<g id="Black_Standart_Front">
</g>
<g id="Guides">
</g>
</svg>
