<?xml version="1.0" encoding="utf-8"?>
<!-- Generator: Adobe Illustrator 25.2.3, SVG Export Plug-In . SVG Version: 6.00 Build 0)  -->
<svg version="1.1" xmlns="http://www.w3.org/2000/svg" xmlns:xlink="http://www.w3.org/1999/xlink" x="0px" y="0px"
	 viewBox="0 0 269.3 181.4" style="enable-background:new 0 0 269.3 181.4;" xml:space="preserve">
<style type="text/css">
	.st0{fill:#ED1C24;}
	.st1{fill:#FFD200;}
	.st2{fill:#FFFFFF;}
	.st3{fill:#00437B;}
</style>
<g id="Red_Posol">
</g>
<g id="Red_Production">
</g>
<g id="Red_Standart">
	<path class="st0" d="M255.1,181.4H14.2c-7.8,0-14.2-6.3-14.2-14.2V14.2C0,6.3,6.3,0,14.2,0h240.9c7.8,0,14.2,6.3,14.2,14.2v153.1
		C269.3,175.1,262.9,181.4,255.1,181.4z"/>
	<path class="st1" d="M27.1,28.7c0.4,0.7,0.7,1.8,0.7,3.1c0,1.3-0.2,2.4-0.6,3.1c-0.4,0.7-1,1.1-1.8,1.1c-0.9,0-1.5-0.4-2-1.1
		c-0.5-0.7-0.7-1.7-0.7-3.1c0-1.3,0.2-2.4,0.7-3.1c0.4-0.7,1.1-1.1,1.9-1.1C26,27.6,26.6,28,27.1,28.7z M27.6,14.6
		c0.2-0.2,0.2-0.5,0.1-0.7c0,0,0,0,0,0.1c0,0.2-0.2,0.3-0.3,0.3c-0.2,0-0.4-0.2-0.4-0.3c0-0.2,0.2-0.3,0.4-0.3c0,0,0.1,0,0.1,0
		c-0.2-0.1-0.5-0.1-0.7,0.1c-0.2,0.2-0.2,0.6,0,0.9C27,14.8,27.4,14.8,27.6,14.6z M67.1,36.2c0,17.1-13.8,30.9-30.9,30.9
		S5.3,53.3,5.3,36.2S19.2,5.3,36.2,5.3S67.1,19.2,67.1,36.2z M25,39.8c1.5,0,2.8-0.3,4-1c1.2-0.7,2.1-1.6,2.7-2.9
		c0.7-1.2,1-2.7,1-4.3c0-2.3-0.7-4.2-2-5.6c-1.1-1.2-2.6-1.9-4.3-2.1l0,0l-1.1-3.1c-0.2,0.1-0.5,0.1-0.7,0.1l1,2.9
		c-0.1,0-0.2,0-0.3,0c-0.1,0-0.3,0-0.4,0l-1.2-3.4c0.8,0,2.8-0.2,3.8-1.9c1.1-1.7,1.4-4.3,1.4-4.3l1.2-0.5c0.1,0,0.1-0.1,0-0.1h-1.2
		c-0.2-0.4-0.9-1-1.9-1c-0.6,0-1.1,0.2-1.6,0.5c0,0-0.7,0.5-1.7,1.3l-3,2.5c-0.2,0.2-0.5,0.3-0.9,0.3H16c-0.1,0-0.1,0.1-0.1,0.1
		c0.3,0.8,1,1.5,2.2,1.5l-0.9,0.9c0,0,0,0.1,0.1,0.1h3.4c2.4,0,3.9-1,4.9-2.5c0.1-0.1,0.2-0.3,0.2-0.4c0,0,0,0.1,0,0.1
		c-0.3,0.6-0.9,1.8-2,2.5c-0.4,0.2-0.5,0.3-1.1,0.5c0,0-0.1,0.1,0,0.1l1.4,3.8l0,0c-1.8,0.2-3.3,0.9-4.5,2.1
		c-1.4,1.5-2.2,3.4-2.2,5.9c0,2.3,0.7,4.2,2,5.7C21,39,22.8,39.8,25,39.8z M44.9,26.9c0.6-1.2,0.1-2.8-1.2-3.4
		c-1.2-0.5-2.6-0.1-3.2,1.1l-13,25.4c-0.6,1.2-0.1,2.8,1.2,3.4l0,0c1.2,0.6,2.6,0.1,3.2-1.1L44.9,26.9z M54.9,45.5
		c0-2.3-0.7-4.2-2-5.6c-1.4-1.4-3.2-2.1-5.4-2.1c-2.3,0-4.2,0.7-5.6,2.2c-1.4,1.5-2.2,3.4-2.2,5.8c0,2.4,0.7,4.3,2,5.7
		c1.4,1.4,3.2,2.2,5.4,2.2c1.5,0,2.9-0.3,4.1-1c1.2-0.7,2.1-1.6,2.7-2.9C54.5,48.5,54.9,47.1,54.9,45.5z M47.2,41.6
		c-0.8,0-1.5,0.4-1.9,1.1c-0.4,0.7-0.7,1.8-0.7,3.1c0,1.3,0.2,2.3,0.7,3.1c0.5,0.7,1.1,1.1,2,1.1c0.8,0,1.4-0.4,1.8-1.1
		c0.4-0.7,0.6-1.7,0.6-3.1c0-1.3-0.2-2.4-0.7-3.1C48.7,41.9,48.1,41.6,47.2,41.6z"/>
</g>
<g id="Black_Standart">
</g>
<g id="Blue_Posol_Fish_Front">
</g>
<g id="Black_Production_Fish_Front_1_">
</g>
<g id="Black_Production_Front">
</g>
<g id="Black_Standart_Back">
</g>
<g id="Black_Standart_Front">
</g>
<g id="Guides">
</g>
</svg>
