<?xml version="1.0" encoding="utf-8"?>
<!-- Generator: Adobe Illustrator 25.2.3, SVG Export Plug-In . SVG Version: 6.00 Build 0)  -->
<svg version="1.1" xmlns="http://www.w3.org/2000/svg" xmlns:xlink="http://www.w3.org/1999/xlink" x="0px" y="0px"
	 viewBox="0 0 269.3 181.4" style="enable-background:new 0 0 269.3 181.4;" xml:space="preserve">
<style type="text/css">
	.st0{fill:#ED1C24;}
	.st1{fill:#FFD200;}
	.st2{fill:#FFFFFF;}
	.st3{fill:#00437B;}
</style>
<g id="Red_Posol">
</g>
<g id="Red_Production">
	<path class="st0" d="M255.1,181.4H14.2c-7.8,0-14.2-6.3-14.2-14.2V14.2C0,6.3,6.3,0,14.2,0h240.9c7.8,0,14.2,6.3,14.2,14.2v153.1
		C269.3,175.1,262.9,181.4,255.1,181.4z"/>
	<path class="st1" d="M27.1,28.7c0.4,0.7,0.7,1.8,0.7,3.1c0,1.3-0.2,2.4-0.6,3.1c-0.4,0.7-1,1.1-1.8,1.1c-0.9,0-1.5-0.4-2-1.1
		c-0.5-0.7-0.7-1.7-0.7-3.1c0-1.3,0.2-2.4,0.7-3.1c0.4-0.7,1.1-1.1,1.9-1.1C26,27.6,26.6,28,27.1,28.7z M27.6,14.6
		c0.2-0.2,0.2-0.5,0.1-0.7c0,0,0,0,0,0.1c0,0.2-0.2,0.3-0.3,0.3c-0.2,0-0.4-0.2-0.4-0.3c0-0.2,0.2-0.3,0.4-0.3c0,0,0.1,0,0.1,0
		c-0.2-0.1-0.5-0.1-0.7,0.1c-0.2,0.2-0.2,0.6,0,0.9C27,14.8,27.4,14.8,27.6,14.6z M67.1,36.2c0,17.1-13.8,30.9-30.9,30.9
		S5.3,53.3,5.3,36.2S19.2,5.3,36.2,5.3S67.1,19.2,67.1,36.2z M25,39.8c1.5,0,2.8-0.3,4-1c1.2-0.7,2.1-1.6,2.7-2.9
		c0.7-1.2,1-2.7,1-4.3c0-2.3-0.7-4.2-2-5.6c-1.1-1.2-2.6-1.9-4.3-2.1l0,0l-1.1-3.1c-0.2,0.1-0.5,0.1-0.7,0.1l1,2.9
		c-0.1,0-0.2,0-0.3,0c-0.1,0-0.3,0-0.4,0l-1.2-3.4c0.8,0,2.8-0.2,3.8-1.9c1.1-1.7,1.4-4.3,1.4-4.3l1.2-0.5c0.1,0,0.1-0.1,0-0.1h-1.2
		c-0.2-0.4-0.9-1-1.9-1c-0.6,0-1.1,0.2-1.6,0.5c0,0-0.7,0.5-1.7,1.3l-3,2.5c-0.2,0.2-0.5,0.3-0.9,0.3H16c-0.1,0-0.1,0.1-0.1,0.1
		c0.3,0.8,1,1.5,2.2,1.5l-0.9,0.9c0,0,0,0.1,0.1,0.1h3.4c2.4,0,3.9-1,4.9-2.5c0.1-0.1,0.2-0.3,0.2-0.4c0,0,0,0.1,0,0.1
		c-0.3,0.6-0.9,1.8-2,2.5c-0.4,0.2-0.5,0.3-1.1,0.5c0,0-0.1,0.1,0,0.1l1.4,3.8l0,0c-1.8,0.2-3.3,0.9-4.5,2.1
		c-1.4,1.5-2.2,3.4-2.2,5.9c0,2.3,0.7,4.2,2,5.7C21,39,22.8,39.8,25,39.8z M44.9,26.9c0.6-1.2,0.1-2.8-1.2-3.4
		c-1.2-0.5-2.6-0.1-3.2,1.1l-13,25.4c-0.6,1.2-0.1,2.8,1.2,3.4l0,0c1.2,0.6,2.6,0.1,3.2-1.1L44.9,26.9z M54.9,45.5
		c0-2.3-0.7-4.2-2-5.6c-1.4-1.4-3.2-2.1-5.4-2.1c-2.3,0-4.2,0.7-5.6,2.2c-1.4,1.5-2.2,3.4-2.2,5.8c0,2.4,0.7,4.3,2,5.7
		c1.4,1.4,3.2,2.2,5.4,2.2c1.5,0,2.9-0.3,4.1-1c1.2-0.7,2.1-1.6,2.7-2.9C54.5,48.5,54.9,47.1,54.9,45.5z M47.2,41.6
		c-0.8,0-1.5,0.4-1.9,1.1c-0.4,0.7-0.7,1.8-0.7,3.1c0,1.3,0.2,2.3,0.7,3.1c0.5,0.7,1.1,1.1,2,1.1c0.8,0,1.4-0.4,1.8-1.1
		c0.4-0.7,0.6-1.7,0.6-3.1c0-1.3-0.2-2.4-0.7-3.1C48.7,41.9,48.1,41.6,47.2,41.6z"/>
	<path class="st2" d="M89.1,13.4c1.3,3.1-0.2,7.4-3.7,8.2c11.8,7.3-9.8,19.6-6-5.6c0.1-1.7,1.6-4.9,3.4-3.1c-0.3,0.8-1,1.5-1,2.5
		c-2.5,25.9,11.5,9.6,0.8,6.3l-0.4-0.3c0.5-0.9,2.3-0.3,3-0.9c3.4-1.7,2.9-7.2,0-9.2c-2-1.7-5,1.4-6.7-0.4
		C81.5,8.3,87.8,9.2,89.1,13.4z M137,26.6c-0.2,3.8-6.9,6.2-7.8,1.8c-2.7,4.6-5.9,2.2-5.1-2.4c-0.8,0.5-1.3,0.9-2.1,0.9
		c-0.2,1,0.5,2.5-0.3,3.4c-0.5,0.4-2.3,0.4-2.3-0.6c0-0.3,0-1.2,0.1-1.7c-1.1,1.9-4.8,2.3-5.6,0c-1.6,4.7-7.3,4.1-6.3-1.3
		c-0.9,1.7-4,4.6-5.3,1.9c-1.4,3.4-5.6,1.6-5.3-1.7c-1.5,6-7.9,4.4-5.4-1.4c0.6-1.3,3.3-1.7,3.7,0c-0.1,0.6-0.9,0.4-1.1,0
		c-1.4-0.7-1.8,4.1-0.4,4c3.2,0.2,2.8-12.1,6-8.5c-0.1,2.3-0.7,5.4-0.2,7.8c0.8,1.8,2.3-1.4,2.6-2.2c0.5-2.9,3.3-7.7,6.7-5.6
		c0.4-0.6,2-0.6,2.3,0.1c-0.2,2.5-1.2,5.6-0.9,8.2c0.1,0.4,0.2,0.6,0.4,0.6c1.5-0.3,2.5-2.5,2.9-3.8c0,0,0,0,0,0
		c-0.3-2.5,1.2-8.2,4.6-5.6c0.8,0.8,0.8,3.9-0.9,2.4c0.3-0.7-0.1-2.8-0.9-1.3c-0.6,1.8-0.5,3.9-0.3,5.8c0.4,2.8,3,0.2,3.4-1.2
		c0.5-1.7,0.2-3.9,0.8-5.5c3.5-1.6,1.5,3.6,1.8,5.3c1,0,1.7-1,2.3-1.8c0-1.3,0.8-5.7,2.8-3.7c-0.6,1.6-0.8,3.6-0.9,5.3
		c-0.5,4.1,1.4,4.1,2.7,0.6c0.5-1.9,0.8-3.9,2.1-5.3c1.8-1.9,4.3-0.2,3.3,2.2c-0.3,1.3-1.2,2.8-2.7,2.9c-0.9,5.6,3.6,3.5,4.4-0.2
		C136.5,25.8,137.1,26.1,137,26.6z M131.7,25.6c1.2-0.8,2-2.9,1.4-4.2C132.4,22.6,131.8,24.2,131.7,25.6z M108.4,22.3
		c-1.8-4.3-5.8,4.9-4.4,6.2C106.1,27.6,107.5,24.3,108.4,22.3z M149.9,23.9c1.6,8.3-9,10.1-7.1,0.4c0.7-12.8,11-10.8,3.9-3.3
		C148.3,21,149.5,22.4,149.9,23.9z M145.9,20.7c0.7-0.7,3-3.9,1.9-4.6C146.5,16.8,146.3,19.3,145.9,20.7z M148.4,25.1
		c0-1.4-1-3.7-2.7-3c-0.2,2.1-1.1,5.9,0.6,7.4C148,29.3,148.3,26.6,148.4,25.1z M169,21.4c0.4,3-0.9,8.4-5,7.5
		c-0.3,2.1-0.5,4.2-0.3,6.4c0.1,0.7,0.2,1.4-0.3,1.9c-0.5,0.4-2.3,0.6-2.4-0.4c-0.2-2.6-0.4-5.3-0.4-8c-1.5,3.3-5.8,2.5-5.9-1.2
		c-0.4,1.4-2.6,2.1-3.5,1c-1-0.8,0-8.7,2-6.6c-0.1,1.8-1.3,4.3-0.6,5.9c0.6,0.1,1-1,1.4-1.5c0.8-1.3,0.8-3,1.2-4.3
		c0.3-0.7,2.2-0.7,2.2,0.3c0.1,2.2-0.9,5.4,0.7,7.2c1.5-0.4,2.1-2.5,2.6-3.8c0.2-1.8-1.2-6.3,2.1-5.3c0.3,0.1,0.5,0.3,0.5,0.6
		c0,1.1,0,2.6,0,3.7c0.5-1.5,1.1-3.4,2.4-4.4C166.7,19.5,168.9,19.7,169,21.4z M167.6,21.4c-0.8-2.9-3.3,5.2-3.3,5.9
		C166.8,29.5,167.9,22.9,167.6,21.4z M177,23.5c0.4,2.2,0.1,5-1.7,6.6c-1.7,1.4-4.7,0.4-4.9-2c-0.3-2.4-0.3-7.8,3.3-7.1
		C175.3,19.7,176.7,22,177,23.5z M175.7,25.3c0-1.2-0.2-2.7-1-3.7c-0.2,0.2-0.6,0.3-0.9,0.2l-0.2,0.1c-1,2.1-1.5,5.7-0.2,7.6
		C175.1,29.2,175.7,26.8,175.7,25.3z M185.3,14.6c0.7,1.9-2.4,1.7-3.5,1.8c3.9,3,6.1,16.1-1.7,13.8c-3.4-2.4-1.7-9.5,2.8-9.3
		c-0.8-1.7-1.7-3.3-3-4.6c-1-0.2-1.4-1.7,0-1.7c1.4,0.6,3.6,0.3,4.9-0.6C184.9,14,185.1,14.2,185.3,14.6z M183.2,22
		c-2.4,0.2-2.5,3.5-2.4,5.4c-0.1,1.2,0.9,3.2,2,1.7C183.9,27,183.7,24.3,183.2,22L183.2,22z M217.2,28.9c2,7.4-7.7,5.5-1.9,1.3
		l-0.1-0.8c-1.8,2-4.6,0.1-4.2-2.3c-0.7,1.9-3.7,3.5-4.9,1.4c-1.3,3.6-6,3.2-6.1-0.8c-0.4,1.5-3.2,2.3-3.8,0.6
		c-2.6,4.6-6,2.4-5.1-2.3c-0.8,0.5-1.3,0.9-2.1,0.9c-0.2,1,0.5,2.5-0.3,3.4c-0.5,0.4-2.3,0.4-2.3-0.6c0.2-2.8,0.1-6.4,0.8-9.1
		c3.5-1.6,1.5,3.6,1.8,5.3c1,0,1.7-1,2.3-1.8c0-1.3,0.8-5.7,2.8-3.7c-0.4,1-2.3,10.4,0.6,8.1c2.1-1.6,1-5.6,3-6.8
		c1.6-0.2,0.2,2.4,0.2,3.4c-1.1,7.1,2.7-0.5,2.5-3c0.2-0.5,1.4-0.7,1.9-0.3c0.9,1.8-0.4,4.3,0.3,6.4c0.2,2.4,1.5,1.4,2.3-0.1
		c1.2-2.3,1.3-4.7,2.1-7.1c0.5-0.2,1.5-0.5,1.6,0.2c-2.6,9.6,0.6,9,2.8,0.4c0.1-0.4,0-1,0.5-1.3c0.4-0.3,1.6-0.3,1.6,0.5
		c0,2.7-1,5.4-0.4,8.1c0.8,1.5,1.7-1,1.7-1.7c0.2-1,1.3-0.8,1.9-0.2C217,27.7,217.1,28.3,217.2,28.9z M215.4,30.9
		c-0.7,0.3-1.8,2.1-0.6,2.3C215.9,33.1,215.4,31.9,215.4,30.9z M238.9,23.9c0.6,2.3-0.1,5.1-2.1,6.4c-2,1.4-5,0.1-5-2.4
		c-0.8,1.4-3.4,2-4.3,0.6c-1.1-1.9,0-4.3-0.1-6.4c-1.6,2-2.3,5.2-2.1,7.7c-0.1,0.5-0.5,0.5-1,0.5c-3.1-0.3-1.1-5.8-1.2-7.8
		c-1.1,1.7-2.1,4.4-2.1,6.4c-4.4,2.3-2.6-5.8-2-7.9c0.3-0.7,1.1-0.5,1.8-0.4c1.1,0.7,0,2.6,0,3.7c0.3-2.6,4.2-4.9,4.3-1
		c0.6-2.7,4.3-3.1,4.4,0c-0.3,2.6-0.7,7.3,2.2,2.4c0.2-14.6,11.4-12.7,4-4.9C237.3,21,238.5,22.4,238.9,23.9z M234.9,20.7
		c0.7-0.7,3-3.9,1.9-4.6C235.5,16.8,235.3,19.3,234.9,20.7z M237.4,25.1c0-1.4-1-3.7-2.7-3c-0.2,2.1-1.1,5.9,0.6,7.4
		C237,29.3,237.3,26.6,237.4,25.1z M246.7,24.7c0,1.8-0.3,4.2-1.9,5.4c-1.7,1.4-4.7,0.4-4.9-2c-0.3-2.4-0.3-7.8,3.3-7.1
		C245.4,19.5,246.7,23,246.7,24.7z M245.3,25.3c0-1.2-0.2-2.7-1-3.7c-0.2,0.2-0.6,0.3-0.9,0.2l-0.2,0.1c-1,2.1-1.5,5.7-0.2,7.6
		C244.7,29.2,245.2,26.8,245.3,25.3z"/>
</g>
<g id="Red_Standart">
</g>
<g id="Black_Standart">
</g>
<g id="Blue_Posol_Fish_Front">
</g>
<g id="Black_Production_Fish_Front_1_">
</g>
<g id="Black_Production_Front">
</g>
<g id="Black_Standart_Back">
</g>
<g id="Black_Standart_Front">
</g>
<g id="Guides">
</g>
</svg>
