<svg version="1.1" id="Layer_1" x="0" y="0" width="250" height="400" xmlns="http://www.w3.org/2000/svg"><style type="text/css" id="style1">.st1{fill:#fff}.st2{fill:#339bd7}</style><g id="bg" display="inline"><path class="st1" d="M17.83 151.95l.84 179.75 15.61 19.56 97.04 46.21 105.93-50.78 9.16-19.19-1.61-175.56c-2.24-5.79-8-9.44-14.2-9H33.71z" id="path1"/><path class="st2" d="M249.96 318.5c0-2.17-.02-4.34-.02-6.54-.04-8.64-.07-17.28-.07-25.92v-1.31c-.04-22.84-.03-46.06-.02-68.51l.02-36.15c.01-6.49.01-12.97 0-19.44 0-7.93-1.53-18.72-14.56-21.48l-.07-.08-1.38-.19-.15-.02-2.26-.35-.08.08c-.33-.03-.67-.05-1.02-.07l-.51-.02c-.2 0-.4-.02-.6-.03h-.23c-.48 0-.97-.02-1.48-.02-29.74-.01-59.48-.01-89.23 0h-27.96c-8.87.01-17.73.03-26.61.05h-2.4c-.37 0-.71 0-1.03-.03l-45.67-.02h-.15l-.58.03-.52.05-.88.06-.08-.09-2.39.37-.16.03-1.26.17-.07.07-.32.07c-.29.06-.58.12-.86.2l-.91.25c-.29.09-.58.18-.86.29-.29.11-.58.2-.84.31l-.04.02c-.23.08-.46.18-.69.29l-.15.07c-.13.06-.25.12-.38.18-.23.11-.45.22-.67.33-.26.14-.52.29-.77.44-.1.05-.2.12-.31.19-.29.17-.54.35-.75.51l-.12.09c-.13.09-.26.19-.39.29l-.22.12-.37.36c-.29.26-.55.5-.73.68-.22.22-.44.45-.63.66-.11.12-.22.25-.33.38-.16.18-.31.37-.44.56l-.17.23c-.06.09-.13.18-.2.29l-1.11 1.67v.16l-.09.17c-.11.21-.2.41-.27.58-.07.17-.17.37-.25.58-.15.34-.29.71-.41 1.04l-.37 1.1v.03c-.04.13-.08.26-.12.4-.07.23-.13.46-.18.71-.04.17-.08.35-.12.53-.05.2-.09.41-.13.63-.03.14-.06.29-.09.46l-.11.4v.24l-.06.43c-.03.21-.06.41-.08.62-.02.21-.05.36-.06.54l-.05.48c-.12 1.24-.17 2.57-.17 4.03v19.44l.05.68c.02.16.04.32.05.49l.01.15c.03.26.04.54.04.81-.02 10.56-.04 21.11-.04 31.67v1.03c-.01 24.84-.02 47.7 0 69.84v1.18c0 8.67.01 17.34.02 26.01 0 3.36.01 6.73.02 10.1-.3 8.43 2.34 16.71 7.46 23.41.08.1.16.19.29.35a33.798 33.798 0 005.9 5.52c.29.2.58.41.88.63 1.21.83 2.46 1.6 3.74 2.3.43.23.86.47 1.28.66.44.22.9.44 1.32.63l.31.14c3.35 1.54 6.7 3.08 10.08 4.65.47.21.94.43 1.42.66l.17.08c21.4 9.9 43.08 20.13 64.04 30.02l16.47 7.74.31.15a11.098 11.098 0 001.83.67c.34.09.69.17 1.05.22l.17.03c.25.03.52.05.77.07h.94c.25-.02.53-.04.78-.07l.18-.03c.34-.05.67-.12 1.01-.21.27-.07.53-.15.81-.25.49-.16.97-.35 1.44-.58l20.11-9.46c19.78-9.32 40.23-18.95 60.41-28.32l.21-.1c.45-.21.9-.42 1.41-.65 3.29-1.54 6.59-3.06 9.89-4.58.6-.29 1.17-.55 1.67-.82.43-.22.86-.44 1.27-.66.82-.44 1.5-.84 2.1-1.22.33-.2.66-.41.98-.63.26-.16.51-.33.75-.5.24-.16.56-.39.81-.58 2.14-1.54 4.09-3.32 5.81-5.31.15-.17.29-.33.41-.47 5.31-6.7 8-15.1 7.58-23.64v-3.5zm-88.27-113.55l.48-1.49c.68.33 1.42.49 2.18.48 1.11 0 1.67-.32 1.67-.96.01-.3-.15-.57-.41-.71-.4-.19-.84-.28-1.28-.25h-1.38l.19-1.46h1.15c.38.02.77-.06 1.11-.24.25-.15.4-.42.39-.71 0-.58-.48-.86-1.43-.86-.72 0-1.43.17-2.07.49l-.52-1.44c.43-.23.89-.4 1.37-.51.49-.12.99-.18 1.49-.18.55-.01 1.1.09 1.61.29.42.15.78.42 1.06.77.25.33.38.74.37 1.15.02.84-.55 1.58-1.37 1.78v.02c.47.08.89.32 1.2.67.3.37.45.84.43 1.31.02.71-.32 1.39-.92 1.79-.77.48-1.68.71-2.59.66-.95.02-1.89-.18-2.74-.58m16.82.32v.16h-2.15l-2.22-3.32h-.55v3.31h-2.02v-8.22h2.02v3.42h.48l2.23-3.41h2.03v.19l-2.47 3.78v.12zm5.44-1.7h-2.77l-.54 1.84h-2.07l2.72-8.21h2.55l2.72 8.21h-2.08zm-.43-1.49l-.55-1.87c0-.05-.07-.23-.15-.51l-.2-.73h-.09c-.06.22-.12.46-.2.71-.08.25-.13.43-.16.52l-.55 1.87zm8.43-4.54c.98.39 1.6 1.36 1.56 2.41.01.52-.13 1.03-.4 1.47-.28.43-.68.76-1.15.96-.55.24-1.15.35-1.75.34h-.71v2.69h-2.02v-8.21h2.72c.6-.01 1.2.1 1.76.33m-2.47 1.16v2.52h.74c.34.02.68-.11.92-.35a1.25 1.25 0 00-.92-2.17zm11.33.06h-2.4v6.65h-2.02v-6.64h-2.4v-1.56h6.83zm6.31-1.13c.58.36 1.03.88 1.31 1.5.3.69.45 1.43.43 2.18.01.74-.13 1.48-.43 2.16-.28.62-.73 1.14-1.31 1.5-1.33.73-2.94.73-4.27 0-.58-.36-1.04-.88-1.31-1.5a5.19 5.19 0 01-.44-2.16c-.01-.75.14-1.5.44-2.18.28-.62.74-1.14 1.31-1.5 1.34-.73 2.94-.73 4.27 0m-.78 5.61c.36-.57.53-1.25.5-1.92a3.25 3.25 0 00-.5-1.94 1.664 1.664 0 00-2.71 0c-.36.58-.53 1.26-.49 1.94-.04.68.13 1.35.49 1.92.54.75 1.59.92 2.34.37.14-.1.27-.23.37-.37m13.14-5.61c.57.36 1.02.89 1.29 1.5.3.69.45 1.43.43 2.18.01.74-.13 1.48-.43 2.16a3.36 3.36 0 01-1.29 1.5c-.63.38-1.36.57-2.09.55-.94.05-1.85-.28-2.55-.9a4.006 4.006 0 01-1.18-2.4h-1.64v3.19H210v-8.23h2.02v3.41h1.6c.08-.96.48-1.86 1.15-2.55.7-.66 1.65-1 2.61-.96.74-.02 1.46.17 2.1.55m-.79 5.64c.35-.59.52-1.27.48-1.95.05-.69-.12-1.37-.47-1.97-.51-.72-1.51-.89-2.23-.38-.15.1-.28.23-.38.38a3.48 3.48 0 00-.48 1.97c-.04.68.12 1.36.48 1.94.29.43.78.69 1.3.67.51.02 1.01-.23 1.3-.66m-49.33 16.58h-2.02v-6.47h-2.03l-.46 4.29c-.03.66-.32 1.29-.82 1.73-.51.4-1.14.6-1.79.58-.35 0-.71-.07-1.03-.2l.29-1.38c.19.06.38.09.58.1.45 0 .71-.29.78-.89l.61-5.95h5.9zm7.17-7.77c.58.36 1.03.88 1.31 1.51.58 1.39.58 2.96 0 4.35-.28.62-.73 1.14-1.31 1.5-1.33.73-2.94.73-4.27 0a3.49 3.49 0 01-1.32-1.5 5.655 5.655 0 010-4.35c.28-.62.74-1.15 1.32-1.51 1.33-.73 2.94-.73 4.27 0m-.77 5.63c.36-.58.53-1.25.49-1.93.04-.68-.13-1.36-.49-1.94a1.664 1.664 0 00-2.71 0c-.36.58-.53 1.26-.5 1.94-.04.68.13 1.35.5 1.93.55.75 1.6.91 2.35.36.13-.1.26-.23.36-.36m9.5-6.05v8.2h-2.02v-3.04h-.29a.449.449 0 00-.3.07c-.08.08-.15.17-.21.27l-1.66 2.7h-2.15v-.13l1.76-2.84.12-.2c.03-.05.07-.1.12-.14v-.04c-.45-.17-.83-.47-1.11-.86-.28-.41-.42-.9-.41-1.4-.04-.74.28-1.45.86-1.91.68-.48 1.51-.72 2.34-.68zm-2.01 3.67v-2.19h-.86c-.33-.02-.65.08-.91.29-.23.21-.35.51-.33.82-.02.31.1.6.33.81.26.2.58.3.91.27zm10.99 4.53h-2.02v-6.47h-2.03l-.46 4.29c-.03.66-.32 1.29-.82 1.73-.51.4-1.14.6-1.79.58-.35 0-.71-.07-1.03-.2l.29-1.38c.19.06.38.09.58.1.45 0 .71-.29.78-.89l.61-5.94h5.9zm6.85-4.35a2.601 2.601 0 010 3.67c-.57.47-1.3.71-2.04.67h-3.37v-8.23h2.02v3.21h1.34c.75-.03 1.47.21 2.05.68m-1.57 2.62c.43-.44.43-1.14 0-1.58a1.26 1.26 0 00-.89-.29h-.96v2.17h.96c.32.02.64-.08.89-.29m10.37-6.5v8.23h-2.02v-3.2h-2.85v3.19H203v-8.23h2.02v3.41h2.84v-3.41zm7.16.45c.58.36 1.03.88 1.31 1.51.58 1.39.58 2.95 0 4.35-.28.62-.73 1.14-1.31 1.5-1.33.73-2.94.73-4.27 0-.58-.36-1.03-.88-1.31-1.5a5.567 5.567 0 010-4.35c.28-.62.73-1.15 1.31-1.51 1.33-.73 2.94-.73 4.27 0m-.77 5.62c.36-.58.53-1.25.49-1.93.04-.68-.13-1.36-.49-1.94a1.664 1.664 0 00-2.71 0c-.36.58-.53 1.26-.49 1.94-.04.68.13 1.35.49 1.93a1.679 1.679 0 002.71 0m9.92 1.81c-.73.32-1.51.48-2.3.46a4.37 4.37 0 01-3.13-1.05c-.8-.85-1.21-1.99-1.13-3.15v-.05c-.01-.78.18-1.55.55-2.24.34-.62.87-1.13 1.5-1.45.69-.35 1.45-.52 2.22-.5.77 0 1.54.15 2.25.46l-.54 1.49c-.28-.1-.57-.19-.86-.25a4.11 4.11 0 00-.86-.08c-.6-.02-1.18.21-1.6.64a2.79 2.79 0 00-.63 1.96c-.05.71.17 1.41.61 1.96.42.43 1 .66 1.6.63.29 0 .58-.02.86-.09.3-.08.6-.17.9-.29zm7.24-6.3h-2.4v6.64H229v-6.66h-2.4v-1.55h6.83v1.57zm2.94 6.65h-2.02v-8.21h2.02zm-64.43-46.05l8.67-25.66c.28-.82 1.17-1.26 1.98-.98l24.12 8.15 17.74 6c1.12.38 1.72 1.59 1.35 2.71l-8.48 25.11c-.28.82-1.16 1.26-1.98.98l-42.41-14.33a1.55 1.55 0 01-.99-1.98zm63.47 166l-.17.2-.09.11a24.91 24.91 0 01-4.32 3.95c-.21.16-.42.3-.63.45-.14.1-.29.2-.45.29l-.22.14c-.2.14-.4.26-.6.38l-.09.05c-.46.29-.96.58-1.62.93-.32.18-.65.35-1.06.56-.41.2-.89.45-1.35.66-3.31 1.53-6.62 3.06-9.88 4.58-.49.22-.98.45-1.47.68l-.19.09c-20.19 9.38-40.65 19.01-60.44 28.34l-20.13 9.48c-.09.05-.19.09-.29.12l-.27.09c-.05.02-.11.04-.16.05h-.15c-.06-.02-.13-.03-.21-.06-.08-.03-.18-.08-.29-.12l-16.65-7.85c-20.98-9.9-42.68-20.14-64.08-30.04l-.15-.07c-.51-.24-1.02-.48-1.49-.69-3.35-1.56-6.71-3.11-10.08-4.65l-.35-.16c-.34-.15-.67-.31-1.05-.5-.33-.16-.65-.33-.96-.5-1.07-.58-2.04-1.18-2.93-1.79-.26-.18-.5-.36-.7-.5a24.267 24.267 0 01-3.89-3.55l-.1-.12c-.07-.07-.13-.15-.21-.24l-.26-.31a27.345 27.345 0 01-5.47-17.79c-.01-3.36-.02-6.72-.02-10.08-.01-8.67-.02-17.34-.02-26v-1.19c-.01-15.89-.01-32.17 0-49.31h217.9c0 16.36 0 32.93.03 49.32v1.19c.01 8.68.04 17.35.07 26 0 2.19 0 4.37.02 6.55v3.42c.36 6.43-1.59 12.78-5.53 17.89zm-32.83-164.86l-1.13 3.36-.9-.31.05-.39c-.41.21-.89.23-1.31.05-.59-.12-.97-.7-.85-1.29.02-.11.06-.21.11-.31l.75-2.22 1.11.38-.7 2.07c-.11.24 0 .53.25.63l.1.03c.2.06.42.04.61-.05l.79-2.33zm10.02 7.13l1.13-3.36.9.31-.05.39c.41-.21.89-.23 1.31-.05.59.12.97.7.85 1.29-.02.11-.06.21-.11.31l-.75 2.21-1.11-.37.7-2.07c.11-.24 0-.52-.24-.63-.03-.01-.07-.03-.1-.03a.859.859 0 00-.61.05l-.79 2.33zm-7.6-3.78l-.13.91c-.46.07-.93.03-1.37-.13a1.601 1.601 0 01-1.24-1.9c.03-.14.08-.28.14-.41.18-.9 1.05-1.48 1.95-1.3.12.02.24.06.36.12.4.12.78.33 1.09.62l-.47.86c-.17-.22-.4-.38-.67-.46a.773.773 0 00-1.04.36c-.02.05-.04.1-.05.15-.19.41-.01.89.4 1.08.05.02.1.04.15.05.28.09.58.11.87.05zm4.14.14l-.75 2.22-1.11-.38.7-2.07c.11-.24 0-.52-.24-.63-.03-.01-.07-.03-.1-.03a.859.859 0 00-.61.05l-.79 2.33-1.11-.38 1.56-4.61 1.15.39-.5 1.47c.36-.11.74-.09 1.08.05.59.13.96.71.83 1.3a.79.79 0 01-.12.3zm.17.8c-.38 1.13-.12 1.77.71 2.05.39.17.84.14 1.2-.09l-.07.39.91.31 1.09-3.22a5.22 5.22 0 00-1.5-.73 1.708 1.708 0 00-2.35 1.29zm1.15.34c.22-.64.5-.9.86-.78.16.05.31.12.45.21l-.5 1.48c-.19.11-.41.13-.61.05-.32-.1-.39-.42-.22-.95zm-11.66-6.5l.54-.05c.02-.01.03-.02.02-.04 0-.01-.01-.02-.02-.02l-.5-.17a.946.946 0 00-.62-.64 1.16 1.16 0 00-.69-.03s-.33.09-.84.29l-1.54.58c-.13.05-.27.05-.4 0l-1.53-.51c-.04-.01-.04.03-.04.05-.01.42.28.8.69.91l-.48.24c-.02 0-.02.02-.02.04 0 .01.01.02.02.02l1.35.46c.77.31 1.65.18 2.3-.33l.15-.12c.01.01.01.03 0 .04-.3.35-.71.6-1.15.73-.16.04-.33.06-.5.06-.02 0-.03 0-.03.04l.04 1.68.31.11-.04-1.54c.6.23 1.27.14 1.79-.24.48-.44.87-.95 1.17-1.52zm-.83-.5a.27.27 0 01.26.05h-.06c-.09-.01-.18.05-.19.14-.01.09.05.18.14.19h.04c.03 0 .06-.01.08-.03.04-.02.06-.06.07-.1 0 .09-.05.18-.13.23-.13.06-.28.01-.35-.12a.258.258 0 01.09-.35c.01 0 .01-.01.02-.01zm-1.51 2.64l.03 1.38-.31-.1-.03-1.32c.1.02.19.04.29.05zm-1.69-2.45l-.55-.18c1.01-1.15 1.83-1.96 2.05-2.18l1.51.51c.02.15.06.48.11.95-.38.01-.76.09-1.11.26 0-.21-.03-.41-.05-.61-.27.27-.55.61-.82.95l-.86.32a.45.45 0 01-.28-.02zm-1.6 1.15l1.32.45-.93 1.25-1.35-.46c.34-.47.66-.87.96-1.24zm4.84.67c.04.79.08 1.65.09 2.55l-1.34-.45-.03-1.48c.49-.02.95-.25 1.28-.62zm-11.39-10.43l.19.12c-1.01.54-2.04 1.04-3.04 1.51-.2.1.79 1.53 1.19 1.33 1.22-.58 2.45-1.17 3.63-1.83 2.48 1.27 7.49.79 9.99 2.04 2.66 1.33 4.69 4.17 6.27 4.72 1.88.66 5.21-1.13 5.47-.92.12.1-.45-.67-.76-.47-4.61 3.04-7.92-1.86-10.11-3.57-2.27-1.76-6.39-.67-9.01-1.83l-1.04-.46c.75-.45 1.46-.94 2.15-1.47 2.57-2.04 6.14-6.6 3.31-9.79a2.832 2.832 0 00-2.02-1.11c-.73.08-1.39.43-1.87.98-.64.72-1.2 1.5-1.67 2.33l-1.44 2.23c-.36-1.11-.81-2.19-1.33-3.24-.62-1.27-1.71-3.05-3.31-3.19-1.49-.13-2.42 1.24-2.65 2.51-.2 1.34 0 2.71.56 3.95 1.2 2.55 3.1 4.69 5.49 6.16zm-3.84-10.71c.49-.46 1.19-.64 1.84-.46.62.22.89 1.14 1.15 1.69a23.7 23.7 0 011.49 4.42c.04.18 1.02 1.44 1.2 1.15l2.19-3.4c.49-.89 1.12-1.7 1.85-2.41.29-.26.64-.46 1.01-.58.23-.07.48-.08.72-.04.11.02.21.05.31.09.08.43.12.87.12 1.32-.04.47-.14.94-.29 1.39a13.433 13.433 0 01-6.85 7.27c-1.61-.78-3.04-1.9-4.2-3.27a7.328 7.328 0 01-1.48-3.24c-.37-1.39-.02-2.87.94-3.93z" id="path2"/><path d="M191.29 177.05c1.06 1-1.18 2.01-.86.52.12-.03.2.07.17.2.24 1.18 1.17-.54.3-.84 0 0 .02 0 .04-.02 1.07.04.56-1.42-.04-.33-.33-1.1 1.99-.17.39.47zm2.52 1.55c.02 0 .04.01.05.02-.34.75-.92.05-.43-.48-.55.71-1.04 1.17-.48-.1-.18.15-.34.35-.44.56-.53.09-.08-.66.06-.86-.01-.04.03-.07.07-.05.32-.02.1.28.02.42.12-.26.59-.34.51.05.93-.73-.08 1.13.64.44zm.58-.32c.44.3-.18 1.34-.64.9-.21-.29.12-1.09.54-.9.03-.01.07 0 .1 0zm-.43.86c.33 0 .52-.48.42-.76h-.07l-.03-.02h-.02c-.19.19-.34.53-.28.79zm1.73-1.01c-.12.08-.29.01-.41-.02.92 2.21-2.11 1.17-.02.49-.14-.77-.42-.72.44-.66.05.05.06.14.01.19zm-.86 1.3c.29.01.38-.47.43-.7-.29-.1-.59.53-.41.71zm1.27-.57c.44.31-.17 1.34-.64.89-.21-.28.12-1.11.52-.88.02-.01.04-.01.06 0zm-.43.86c.32-.01.5-.48.4-.75-.04.01-.09-.01-.13-.02-.18.17-.38.55-.25.78zm1.9.03c-.09.68-1.11.7-.78-.07-.01.01-.18-.05-.19-.05.02.29-.48.74-.37.2.07-.53.79-1.3.41-.29.07.02.15.05.22.06.02-.19.38-.46.44-.16-.18.14-.25.4-.3.61.07.56.78-.73.31-.67l-.03-.02c.17-.26.5.19.32.41zm1.4-.15c.15.51-.21 2.02-.99 1.9-.6-.27.21-1.15.65-.91l.11-.39c-.6.83-.68-.7-.18-.39-.09.15-.19.34-.17.52.32-.13.35-.64.6-.71zm-.95 1.79c.34-.01.47-.48.58-.74-.28.04-.65.48-.56.75zm2.38-.25c.17.04.31-.15.43-.25.02.01.05.03.06.05-.29.59-.95.31-.78-.32-.1.14-.08.39-.21.48-.75-.06.84-1.94.27-.62.15-.14.76-.47.63-.03-.08.02-.13-.04-.11-.13-.16.05-.26.22-.43.26.12.15.08.36.09.54zm1-.64c.44.3-.18 1.35-.64.89-.22-.29.11-1.08.52-.89.04-.01.09.01.12 0zm-.43.86c.32.02.49-.48.4-.74-.04.01-.09-.01-.13-.02-.19.18-.35.53-.28.78v-.02zm1.43.53c-.45.07-.18-.48-.11-.71l-.1.05c-.03.94-1.25.44-.27-.02.04-.18.05-.38 0-.56l.02-.02c.25-.05.27.21.25.39.59-.48.38.27.25.61.23-.64 1.3-.82.42-.15-.23.39.03.77.35.32.19.42-.86.45-.67-.12-.08.05-.14.13-.15.23v-.02zm-.74-.21c.12-.03.17-.2.22-.31-.08.06-.32.23-.22.33zm1.44-.59c-.08.03-.13.17-.17.24.07-.04.23-.13.18-.22zm1.19.94c.13.54-1.03.57-.56-.15-.07.02-.18.03-.25.02.07.33-.45.5-.31.1.11-.26.21-.56.36-.8.4-.01.04.41-.01.61.35.13.46-.71.73-.37-.3.29-.49 1.29.04.59zm.62-.35c.44.31-.18 1.34-.64.89-.21-.28.12-1.11.52-.88.03-.02.09-.01.12-.01zm-.43.86c.32-.02.49-.48.4-.76h-.07l-.03-.02h-.02c-.2.19-.36.56-.27.82zm2.09-.29c-.07.37-.71 1.74-.43.58-.28.42-.66.09-.42-.31-.36.87-1.22-.14-.35-.21.15.03.14.3-.03.22-.06-.26-.3.17-.13.25.37-.05.52-.83.9-.73-.27.81-.24 1.03.32.12.05.01.11.04.14.08zm.71.13c.15.51-.21 2.02-.99 1.9-.58-.26.18-1.17.62-.93l.1-.39c-.32.5-.75.05-.41-.36.42-.38.02.29.06.48.23-.17.4-.43.49-.69.04 0 .08.01.13.03zm-.95 1.79c.33 0 .45-.5.56-.74-.28.04-.66.5-.56.77zm3.23-.9c-.08.37-.69 1.72-.44.59-.28.42-.66.09-.42-.31-.38.87-1.21-.14-.33-.22.15.03.14.3-.04.22-.05-.27-.3.18-.12.24.37-.04.52-.83.9-.73-.29.86-.22.99.32.12.05 0 .12.03.13.09zm.61.17c.44.3-.17 1.34-.64.9-.22-.28.12-1.1.52-.89.03-.01.08 0 .12-.01zm-.43.87c.32.02.49-.48.4-.74h-.07l-.03-.02h-.02c-.2.18-.33.54-.27.8zm2.09-.29c-.07.38-.71 1.74-.43.58-.28.42-.65.09-.42-.31-.36.87-1.22-.14-.35-.21.15.03.14.3-.03.22-.12-.34-.33.44-.01.21.27-.15.46-.78.79-.69-.29.85-.22 1 .32.12.04-.01.09.02.12.04zm.77.91c-.65.83-1.31-.39-.45-.79.57-.21.31.66-.11.54-.25.39.16.53.4.22.07-.03.19-.04.16.07zm-.24-.66a.99.99 0 00-.29.38c.14-.03.28-.18.29-.33l.01-.01zm1.2.86c.13.55-1.03.57-.56-.14-.08.02-.18.03-.26.02-.27.86-.51.02.05-.69.4-.04.04.39-.01.6.11.02.22-.04.31-.1.04-.16.31-.56.42-.26-.28.26-.5 1.26.05.57zm1.44.44c-.06.74-.98.15-.38-.46-.56.73-1.01 1.18-.46-.1-.18.15-.34.35-.44.56-.87.07.69-1.71.14-.48.11-.26.62-.34.49.05.93-.73-.09 1.17.65.43zm.8.11c.18.36-.95.76-.86.12.01-.21.21-.9.44-.5-.35.56-.11.96.43.43zm-.43-.75c-.27-.29.51-.25.07.01-.02.02-.04.04-.07.04z" id="path3" fill="#575757"/><path d="M212.32 169.24c.18.04.32.07.51.1l-.72.86c-.09.11-.23.15-.36.1l-.24-.08zm5.91-2.62c.03.01.05.04.04.07 0 .02-.02.04-.04.04l-1 .05c-.31.86-.89 1.6-1.65 2.1-1.07.47-2.28.49-3.36.07l-.84 1.03c-.09.11-.23.15-.36.1l-.24-.08 1-1.21c-.79-.32-1.51-.78-2.13-1.36a.096.096 0 01-.02-.09c.01-.02.03-.05.05-.06l.46-.22c-.6-.66-.7-1.63-.26-2.4.02-.04.07-.06.12-.05.02.01.04.02.05.04l.58.9c.59.91 1.5 1.57 2.54 1.87h.04c.03.01.06 0 .07-.03l-.33-.15a4.46 4.46 0 01-1.5-1.15c-.64-1-.72-2.27-.22-3.34.03-.06.07-.12.11-.18.03-.03.07-.05.11-.03.01.01.03.01.04.02.27.29.6.63.95 1.02l.06.06c.36.38 1.64 1.76 1.64 1.76.01 0-1.29-1.63-1.57-1.94.18-.44.44-.85.77-1.2l.15-.12c.03-.01.06-.01.08 0 .03.01.05.03.06.06.29.79.71 2.05 1.13 3.17l.03.07c.44-.15.71-.21.71-.21.33-.08.68-.05.99.08.42.16.73.53.82.97zm-1.5-.21a.39.39 0 00-.24-.5.386.386 0 00-.5.24c-.07.2.03.43.24.5h.01c.2.06.42-.04.49-.24zm-.35-.12c-.04.1.01.2.11.24.1.04.2-.01.24-.11.04-.1-.01-.2-.11-.24-.1-.03-.2.01-.24.11z" id="path4" fill="#e50004"/><path class="st2" d="M74.53 134.73c0 20.58-16.69 37.27-37.27 37.27-20.58 0-37.27-16.69-37.27-37.27 0-20.58 16.69-37.27 37.27-37.27 7.93 0 15.65 2.53 22.04 7.22a37.274 37.274 0 0115.23 30.05z" id="path5"/><path class="st1" d="M25.9 158.51a3.03 3.03 0 01.29-6.05 2.88 2.88 0 012.88 2.88c-.29 2.01-1.45 3.17-3.17 3.17m0-8.07a5.4 5.4 0 00-5.47 5.18c-.58 2.59 2.02 5.18 4.9 5.47h.58a5.4 5.4 0 005.47-5.18 5.23 5.23 0 00-4.97-5.47h-.51m23.32 8.07a3.03 3.03 0 11.292-6.052 3.03 3.03 0 01-.292 6.052m0-8.07c-2.94-.07-5.39 2.26-5.45 5.2-.06 2.94 2.26 5.39 5.2 5.45h.54a5.357 5.357 0 005.18-5.18 5.137 5.137 0 00-4.78-5.47c-.23-.01-.46-.01-.69 0m7.49-18.72a4.329 4.329 0 01-3.74 3.17l-25.92 2.59-5.76-16.99 38.02.58zm5.18-12.38c-.29-.29-.58-.29-.86-.58l-40.32-.58-1.15-3.17a5.531 5.531 0 00-5.18-3.74h-4.32c-.69 0-1.29.48-1.44 1.15 0 .69.48 1.29 1.15 1.44h4.32c1.31-.07 2.49.76 2.88 2.02l7.78 22.75-.58 1.44c-.67 1.72-.46 3.66.58 5.18a7.447 7.447 0 004.61 2.59h24.19c.64 0 1.15-.51 1.15-1.15 0-.64-.51-1.15-1.15-1.15h-24.2a3.172 3.172 0 01-3.1-3.24c.01-.37.08-.74.22-1.08l.58-1.15 26.21-2.59c2.77-.22 5.09-2.2 5.76-4.9l2.88-11.81c.28-.86.28-1.14-.01-1.43" id="path6"/></g><path id="rect1" display="inline" fill="none" d="M0 0h250v400H0z"/><path id="newPrice_box" fill="none" stroke="#000" d="M22.827 272.142h217.996v73.615H22.827z"/><g id="newPrice" font-size="119.7" transform="translate(62.403 343.633) scale(.74055)"><text x="0" y="0" font-family="Sana Sans Alt" font-weight="900" fill="#000" id="text1"><tspan id="newPriceInt" font-size="1em">59</tspan><tspan id="newPriceFra" dy="-.7em" font-size=".5em">99</tspan><tspan id="newPriceCor" dx="-2em" dy="1.4em" font-size=".25em" font-weight="500">грн</tspan></text></g><text id="bonusNumder" x="-55.392" y="-18.27" font-family="'Sana Sans Alt'" font-size="115" font-weight="900" fill="#fff" transform="translate(53.067 224.749) scale(.53409)">+40</text><path id="bonusNumder_box" fill="none" stroke="#000" d="M22.956 165.373h110.729v61.2H22.956z"/><text id="text6-5-7" x="-194.847" y="147.439" font-family="'Sana Sans Alt'" font-weight="900" transform="rotate(-90)" text-anchor="middle" fill="#fff">БОНУСІВ</text><path id="bonusPrice_box" fill="none" stroke="#000" d="M23.133 178.055h136.705v54.086H23.133z"/><path d="M22.612 270.797l118.228-30.665" id="path7" stroke="#000" stroke-width="1.847" stroke-dasharray="none" fill="none"/><g id="oldPrice" font-size="55.195" transform="translate(35.416 269.851) scale(.73892)" fill="#000"><text x="0" y="0" font-family="Sana Sans Alt" font-weight="500" fill="#000" id="text7"><tspan id="oldPriceInt" font-size="1em">100</tspan><tspan id="oldPriceFra" dy="-.7em" font-size=".5em">99</tspan></text></g><path id="oldPrice_box" fill="none" stroke="#000" d="M22.612 240.132h118.227v30.665H22.612z"/><g id="percent" font-size="67.83" transform="translate(155.786 268.069) scale(.53409)" fill="#fff"><path id="percent_box" fill="#e52528" stroke="none" d="M168.544 237.997h55.363c7.9 0 14.26 7.068 14.26 15.848 0 8.779-6.36 15.847-14.26 15.847h-55.363c-7.9 0-14.26-7.068-14.26-15.847 0-8.78 6.36-15.848 14.26-15.848z" transform="translate(-291.686 -501.92) scale(1.87235)" stroke-width="1.104"/><text x="72.809" y="-3.851" font-family="'Sana Sans Alt'" font-weight="900" id="text8"><tspan style="text-align:center" id="tspan8" text-anchor="middle">-48</tspan><tspan dy="-22.045" font-size="33.915" id="tspan7" style="text-align:center" text-anchor="middle">%</tspan></text></g></svg>