<svg xmlns="http://www.w3.org/2000/svg" viewBox="0 0 250 400"><g id="Layer_2" data-name="Layer 2"><g id="Слой_1" data-name="Слой 1"><path fill="none" d="M0 0h250v400H0z"/><path d="M235 139.18c5.08 0 8.68 2 10.7 5.87a16 16 0 011.67 6.44v36.24H16.49v-36.24c0-5.13 1.93-8.61 5.9-10.65a16.2 16.2 0 016.47-1.66H235" fill="#ffd300"/><path d="M235 136.54H28.86s-15 0-15 15v173.87s-.19 18.38 15.46 26.6c4.9 2.57 102.63 48 102.63 48l101.91-47.86c8.25-4.05 16.15-11.8 16.15-26.73V151.49S250 136.54 235 136.54zM245.6 181v5H18.25v-34.51c0-4.37 1.59-7.32 4.85-9a14.52 14.52 0 015.76-1.52H235c4.4 0 7.37 1.59 9.09 4.84a14.14 14.14 0 011.52 5.72z" fill="#e52528"/></g></g></svg>