<svg id="Design" xmlns="http://www.w3.org/2000/svg" viewBox="0 0 250 400"><path d="M131.61 396.07c-1.53 0-3.01-.35-4.41-1.03l-91.13-44.39a33.634 33.634 0 01-13.8-12.42 33.638 33.638 0 01-5.12-17.85V119.11c0-5.55 4.51-10.06 10.06-10.06H236c5.55 0 10.06 4.51 10.06 10.06v201.28c0 6.32-1.77 12.49-5.12 17.85a33.634 33.634 0 01-13.8 12.42l-91.13 44.39c-1.4.68-2.88 1.03-4.41 1.03z" fill="#fff" stroke-width="0"/><path d="M184.36 238.49c.09.12.07.3-.05.39-.12.09-.3.07-.39-.05-.09-.12-.07-.3.05-.39.12-.09.3-.07.39.05m-.34-.03c-.1.08-.12.23-.04.33.08.1.23.12.33.04.1-.08.12-.23.04-.33a.237.237 0 00-.33-.04m6.94 2.31l2.23.29-.88 6.86-1.8-.23-.05-.78c-.56.48-1.27.75-2.43.6-1.56-.2-2.2-1.11-1.98-2.77l.58-4.53 2.23.29-.54 4.23c-.08.64.24 1.05.9 1.13.4.05.92-.13 1.13-.33l.61-4.76zm6.35 6c.61.08 1.13-.06 1.66-.25l.09 1.78c-.46.23-1.54.43-2.61.29-2.23-.29-3.22-1.63-2.92-3.98.3-2.33 1.68-3.45 3.89-3.16 1.09.14 1.7.42 2.27.76l-.56 1.83c-.38-.33-.83-.54-1.42-.62-1.09-.14-1.74.4-1.87 1.4s.35 1.8 1.45 1.94m7.5-4.37c1.56.2 2.2 1.11 1.98 2.77l-.58 4.53-2.23-.29.54-4.23c.08-.64-.24-1.05-.9-1.13-.4-.05-.92.13-1.13.33l-.61 4.76-2.23-.29 1.21-9.42 2.29.29-.38 3c.5-.31 1.13-.45 2.05-.33m14.98 1.92c1.54.2 2.18 1.11 1.97 2.77l-.58 4.53-2.22-.28.54-4.23c.08-.64-.24-1.05-.9-1.13-.4-.05-.92.13-1.13.33l-.61 4.76-2.23-.29.88-6.86 1.8.23.05.78c.56-.48 1.27-.75 2.43-.6m-12.38 2.31c.32-2.47 1.71-3.68 3.92-3.39 1.56.2 2.36.51 3.06.83l-.84 6.58-1.82-.23-.02-.77c-.46.51-1.2.76-2.22.63-1.66-.21-2.39-1.32-2.09-3.64m4.52-1.41c-.29-.11-.5-.17-.92-.22-.71-.09-1.16.52-1.32 1.84-.14 1.07.12 1.67.72 1.75.54.07.9-.13 1.13-.33l.39-3.03zm-31.39-1.73l.64 2.94-.63-.08-.7-3.2s0-.07.04-.08c.46-.11.57-.16.91-.3.99-.47 1.61-1.39 1.87-1.85.02-.03.02-.06 0-.08-.07.1-.15.19-.23.29-.94 1.09-2.26 1.79-4.21 1.54l-2.71-.35c-.07 0-.06-.08-.03-.11l.81-.64c-1-.13-1.49-.79-1.62-1.47 0-.04-.03-.12.06-.11l3.04.39c.31.04.55-.03.76-.16l2.67-1.71c.88-.58 1.46-.88 1.46-.88.4-.2.83-.27 1.31-.21.8.1 1.28.66 1.4.98l1 .13c.07 0 .07.1.01.12l-.98.31s-.57 2.13-1.59 3.39c-1.02 1.26-2.6 1.23-3.26 1.15zm3.03-4.46a.496.496 0 00.87-.45v.04c-.02.15-.16.26-.32.24s-.26-.16-.24-.32.16-.26.32-.24c.02 0 .05.01.07.02a.495.495 0 00-.61 0c-.22.17-.26.48-.09.7zm-2.36 4.96l.55 2.5.63.08-.58-2.62c-.18.02-.38.04-.6.04zm-2.93-4.19l1.51-.95c.39-.75.79-1.51 1.19-2.14.11.38.21.75.32 1.16.83-.52 1.34-.83 1.98-.93-.28-.89-.47-1.5-.57-1.78l-3.04-.39c-.33.51-1.55 2.39-3.03 4.97l1.1.14c.2.03.37.02.53-.09zm-4.46 5.67l2.71.35 1.28-2.75-2.64-.34c-.42.82-.88 1.71-1.36 2.74zm8.52-1.65l.61 2.82 2.68.34c-.34-1.72-.74-3.36-1.12-4.85-.59.9-1.09 1.32-2.17 1.69zm-38.15-34.18c.04 2.62 1.07 5.18 2.51 7.34 2.95 4.42 7.68 7.68 12.56 9.64.13.05.27.1.41.15-1.7 1.44-3.45 2.79-5.14 4.09-.34.26 2.04 2.61 2.73 2.08 2.07-1.59 4.16-3.2 6.14-4.92 5.12 1.47 14.36-1.4 19.51 0 5.49 1.51 10.35 6.14 13.52 6.58 3.77.52 9.35-4.2 9.94-3.9.27.13-1.1-1.11-1.6-.6-7.5 7.6-15.55-.48-20.29-2.87-4.91-2.48-12.24 1.21-17.57.02l-2.11-.48c1.23-1.15 2.4-2.35 3.48-3.65 4.07-4.9 9.07-15.01 2.56-20.03-1.16-.9-2.71-1.68-4.22-1.32-1.38.33-2.4 1.46-3.14 2.61-1.01 1.57-1.6 3.38-2.27 5.11-.62 1.61-1.25 3.22-1.87 4.83a49.41 49.41 0 00-3.69-5.69c-1.65-2.18-4.35-5.17-7.4-4.81-2.83.33-4.07 3.32-4.03 5.84zm26.04-5.85c-.06-.05-.12-.09-.19-.14.06-.02.12.03.19.14zm-22.15 3.82c.75-.98 2-1.78 3.28-1.6 1.25.18 2.09 1.83 2.77 2.79 1.75 2.47 3.21 5.12 4.45 7.87.15.33 2.45 2.36 2.69 1.75.95-2.45 1.9-4.9 2.86-7.36.71-1.83 1.35-3.76 2.58-5.33.46-.59 1.01-1.16 1.68-1.51.41-.21.87-.34 1.33-.35.21 0 .41.01.61.06.32.66.68 2.25.71 2.47.12.92.08 1.84-.01 2.76-.73 6.85-5.11 12.13-10.14 16.58-3.3-.99-6.48-2.36-9.08-4.63-1.74-1.52-3.15-3.45-3.99-5.61-.93-2.41-1.41-5.69.28-7.89zM35.23 221.29c-.02-.08-.09-.31-.21-.7l-.28-1h-.13c-.08.31-.17.63-.27.98s-.18.59-.22.72l-.75 2.57h2.62l-.75-2.57zm43.83 0c-.02-.08-.09-.31-.21-.7l-.28-1h-.13c-.08.31-.17.63-.27.98s-.18.59-.22.72l-.75 2.57h2.62l-.75-2.57zm-9.99-21.69h-1.01v3.47h1.01c.53 0 .96-.16 1.27-.47.31-.32.47-.74.47-1.26s-.15-.96-.46-1.27c-.31-.31-.73-.47-1.28-.47zm-10.18 1.37l-.28-1h-.13c-.08.31-.17.63-.27.98s-.18.59-.22.72l-.75 2.57h2.62l-.75-2.57c-.02-.08-.09-.31-.21-.7zM236 105.1H27.21c-7.72 0-13.99 6.28-13.99 13.99v201.28c0 7.06 1.98 13.95 5.72 19.93a37.587 37.587 0 0015.41 13.87l91.13 44.39c1.95.95 4.04 1.42 6.13 1.42s4.18-.47 6.13-1.42l91.13-44.39a37.587 37.587 0 0015.41-13.87 37.543 37.543 0 005.72-19.93V119.11c0-7.72-6.28-13.99-13.99-13.99zm5.67 215.27c0 11.12-6.46 21.45-16.45 26.31l-91.13 44.39c-1.58.77-3.39.77-4.97 0l-91.13-44.39c-9.99-4.87-16.45-15.2-16.45-26.31v-85.46h114.99l-1.66 12.98c-.2 1.53.22 3.05 1.16 4.27.95 1.22 2.31 2 3.84 2.2l81.06 10.39c.25.03.5.05.75.05 1.27 0 2.5-.42 3.53-1.21 1.22-.95 2-2.31 2.2-3.84l3.18-24.84h11.08v85.46zM35.23 204.5c-.38-.23-.97-.34-1.77-.34h-1.9l.26-2.01h1.59c.65 0 1.16-.11 1.52-.34.36-.22.54-.55.54-.97 0-.81-.65-1.21-1.96-1.21-.98 0-1.93.22-2.84.67l-.72-1.98c.58-.3 1.21-.54 1.89-.7a8.98 8.98 0 012.05-.25c.85 0 1.59.13 2.22.38.63.25 1.11.61 1.45 1.06s.51.99.51 1.6c0 1.19-.63 2.01-1.88 2.45v.03c.71.14 1.26.45 1.66.92.4.47.6 1.08.6 1.81 0 1.04-.42 1.86-1.26 2.46-.84.61-2.03.91-3.56.91-1.43 0-2.69-.27-3.78-.8l.65-2.04c.85.44 1.85.65 2.99.65 1.54 0 2.3-.44 2.3-1.32 0-.43-.19-.75-.57-.98zm-2.29 12.67h3.5l3.74 11.28h-2.86l-.74-2.53h-3.81l-.74 2.53h-2.84l3.74-11.28zm13.93-14.91l3.07-4.69h2.8v.26l-3.4 5.2v.16l3.65 5.44v.21h-2.96l-3.06-4.56h-.75v4.54h-2.76v-11.28h2.76v4.71h.65zm22.22 19.57v-4.69h2.78v11.31h-2.78v-4.38h-3.91v4.38H62.4v-11.31h2.78v4.69h3.91zm5.17-22.13v-2.14h9.4v2.14h-3.3v9.14h-2.8v-9.14h-3.3zm2.52 17.48h3.5l3.74 11.28h-2.86l-.74-2.53h-3.81l-.74 2.53h-2.84l3.74-11.28zm-3.73-13.82c-.37.57-.9 1.01-1.59 1.32-.69.31-1.5.47-2.41.47h-.96v3.69h-2.78v-11.28h3.74c.93 0 1.73.15 2.42.46.69.31 1.22.74 1.59 1.31.37.57.56 1.24.56 2.01s-.19 1.45-.56 2.02zm-11.85 5.48l-.74-2.53h-3.81l-.74 2.53h-2.84l3.74-11.28h3.5l3.74 11.28h-2.86zm-6.24 8.87c.88-.46 1.9-.69 3.06-.69h.02c1.09 0 2.12.21 3.09.64l-.74 2.06c-.45-.16-.84-.28-1.19-.35s-.73-.11-1.17-.11c-.9 0-1.64.29-2.21.87-.57.58-.86 1.48-.87 2.69.01 1.22.29 2.12.84 2.7.55.58 1.28.87 2.2.87.42 0 .81-.04 1.17-.12.35-.08.77-.22 1.23-.4l.75 2.13c-.94.42-1.99.64-3.16.64-1.84 0-3.28-.48-4.3-1.44s-1.54-2.4-1.55-4.33v-.07c.01-1.18.26-2.2.75-3.07.49-.87 1.18-1.54 2.06-2zm-11.07-.53v6.96c0 .75.17 1.32.51 1.71.34.39.83.58 1.47.58s1.13-.19 1.47-.58c.34-.39.51-.96.51-1.71v-6.96h2.78v6.9c0 1.5-.41 2.64-1.23 3.4-.82.76-2 1.14-3.55 1.14s-2.74-.38-3.55-1.14c-.81-.76-1.21-1.9-1.21-3.4v-6.9h2.8zm44.47-14.91l3.07-4.69h2.8v.26l-3.4 5.2v.16l3.65 5.44v.21h-2.96l-3.06-4.56h-.75v4.54h-2.76v-11.28h2.76v4.71h.65zm3.76 20.6l-.03-5.69h2.71v11.28h-2.37l-4.38-6.62h-.08v6.62h-2.7v-11.28h2.48l4.27 6.57h.11l-.02-.88zm2.22-19.65c0-1.12.2-2.12.6-3 .4-.88 1.01-1.57 1.81-2.07.8-.5 1.78-.75 2.93-.75s2.13.25 2.93.75c.8.5 1.4 1.19 1.8 2.07.4.88.6 1.88.6 3s-.2 2.1-.6 2.98c-.4.87-1 1.56-1.8 2.06s-1.78.75-2.93.75-2.13-.25-2.93-.75-1.4-1.19-1.81-2.06c-.4-.87-.6-1.86-.6-2.98zm17.21-1c.17-1.46.71-2.63 1.59-3.51.89-.88 2.08-1.32 3.59-1.32 1.13 0 2.09.25 2.88.75.78.5 1.38 1.19 1.77 2.07.4.88.6 1.88.6 3s-.2 2.1-.6 2.98c-.4.87-.99 1.56-1.77 2.06s-1.74.75-2.88.75c-1.46 0-2.63-.41-3.51-1.24-.88-.83-1.42-1.93-1.63-3.3h-2.26v4.38h-2.78v-11.31h2.78v4.69h2.21zm25.06 45.91l6.25-48.77a4.06 4.06 0 014.53-3.51l81.06 10.39c2.22.28 3.79 2.32 3.5 4.53l-6.25 48.77a4.06 4.06 0 01-1.54 2.69c-.86.66-1.92.95-2.99.81l-81.06-10.39c-1.07-.14-2.03-.68-2.69-1.54s-.95-1.92-.81-2.99zm105.08-56.4H21.54v-72.62c0-3.13 2.54-5.67 5.67-5.67H236c3.13 0 5.67 2.54 5.67 5.67v72.63zm-124.96 15.08c.76 0 1.36-.3 1.8-.92.44-.61.65-1.5.65-2.68s-.22-2.09-.65-2.71-1.03-.92-1.81-.92-1.35.31-1.78.92c-.44.62-.65 1.52-.65 2.71s.22 2.06.65 2.67c.44.62 1.03.92 1.78.92zm-17.05 0c.78 0 1.4-.32 1.86-.95.45-.63.68-1.51.68-2.65s-.23-2.04-.68-2.67c-.45-.64-1.07-.96-1.86-.96s-1.42.32-1.87.96c-.45.64-.68 1.53-.68 2.67s.23 2.02.68 2.65c.45.63 1.08.95 1.87.95z" fill="#0a99d6" stroke-width="0"/><path d="M173.59 248c.02.1.03.2.02.3-.03.24-.12.46-.26.67-.14.2-.33.36-.56.46.13.08.25.19.35.31.1.12.18.26.24.4s.1.29.12.44.03.3 0 .44c-.02.16-.06.3-.13.44s-.16.25-.27.35c-.11.1-.24.17-.39.22-.15.05-.31.06-.49.04-.15-.02-.28-.06-.4-.14s-.22-.16-.3-.27c-.08-.11-.14-.23-.18-.36a.897.897 0 01-.03-.4c0-.07.03-.12.05-.15.02-.03.08-.04.16-.03.06 0 .1.02.13.05.03.02.05.05.05.08s.01.07 0 .11v.12c0 .05.02.12.05.2.03.08.06.15.11.23.04.07.1.14.15.19s.12.09.18.1c.1.01.2-.01.28-.08.09-.06.16-.14.23-.24.06-.1.12-.2.16-.3.04-.11.06-.2.07-.27.01-.12.01-.25 0-.39-.02-.15-.06-.29-.12-.42-.06-.14-.14-.26-.23-.37a.722.722 0 00-.35-.22c-.02 0-.05-.01-.08-.02-.03 0-.06-.02-.09-.03a.218.218 0 01-.08-.05c-.02-.02-.03-.04-.02-.07 0-.02.03-.04.07-.06l.15-.06c.06-.02.11-.04.17-.06.05-.02.09-.04.12-.06.17-.12.31-.28.43-.46s.19-.38.21-.6v-.12c0-.04 0-.09-.02-.13-.01-.04-.04-.08-.07-.11s-.08-.05-.14-.06c-.12-.02-.24 0-.36.05a1.075 1.075 0 00-.54.47c-.06.11-.1.21-.11.32 0 .05-.01.09-.02.12 0 .03-.05.05-.13.04-.07 0-.1-.04-.11-.11v-.16c.02-.13.07-.26.16-.39s.19-.23.32-.32c.12-.09.26-.16.41-.21.15-.05.3-.06.44-.04.11.01.21.05.29.11.08.06.15.13.21.21.06.08.1.17.12.28zm5.91 3.23v.24c-.02.12-.04.25-.08.4s-.1.28-.17.39c-.07.12-.17.21-.28.29a.67.67 0 01-.43.08.672.672 0 01-.31-.12.525.525 0 01-.17-.22.882.882 0 01-.07-.29v-.02c-.07.07-.15.13-.24.17-.09.04-.2.06-.31.04-.19-.02-.31-.1-.36-.21a.815.815 0 01-.05-.42c.02-.15.05-.3.1-.45.05-.15.08-.3.1-.45-.07.05-.14.13-.22.24a3.065 3.065 0 00-.43 1.06v.13c0 .04 0 .08-.01.11s-.03.06-.07.07-.09.02-.17 0a.365.365 0 01-.2-.07.38.38 0 01-.09-.13.88.88 0 01-.02-.17c0-.06 0-.13.02-.19.02-.18.06-.36.11-.55.05-.18.09-.36.14-.54-.06.06-.12.15-.19.26-.07.11-.13.22-.19.34-.06.12-.11.24-.16.36-.04.12-.07.21-.08.3v.02s-.06.06-.11.06h-.13a.38.38 0 01-.18-.06.273.273 0 01-.09-.12.415.415 0 01-.03-.16v-.18c.03-.2.07-.41.12-.63.06-.21.13-.42.21-.6.01-.04.05-.07.09-.07h.13c.04 0 .09.02.16.04.06.02.09.06.08.12-.01.11-.04.22-.08.33-.04.11-.07.22-.11.33.03-.06.06-.13.1-.2.04-.07.09-.13.14-.19.05-.06.12-.1.18-.14.07-.04.14-.05.23-.04.08.01.14.03.18.06s.07.07.08.11c.02.04.02.09.02.14v.16c.03-.05.06-.1.1-.16.04-.05.08-.09.12-.13.05-.04.1-.07.15-.09.06-.02.12-.03.2-.02.13.02.22.08.28.18s.08.21.07.33c0 .07-.03.16-.05.27s-.05.21-.06.3c-.02.1-.03.18-.03.26s.02.11.06.12c.06 0 .11 0 .17-.04a.7.7 0 00.16-.14c.05-.06.09-.11.13-.18 0-.01.01-.02.02-.03 0-.06.02-.12.04-.18.03-.14.07-.27.13-.39s.13-.22.22-.3c.09-.08.2-.11.34-.1.02 0 .04 0 .07.01.02 0 .04.01.06.02a.19.19 0 01.1-.05h.12c.09.01.16.05.22.12.06.07.1.15.13.25s.05.19.06.29zm-.29.15v-.22c0-.07-.02-.14-.04-.21a.479.479 0 00-.07-.16l-.06.03c-.02 0-.05.01-.07 0-.02 0-.04 0-.07-.02h-.04c-.05.06-.09.13-.13.21-.04.08-.07.16-.09.25-.03.09-.05.17-.06.26-.02.09-.03.17-.04.24 0 .02 0 .07-.01.13v.21c0 .07.01.14.03.2.01.06.03.09.06.09.06 0 .12-.01.19-.07.07-.05.13-.12.18-.2.06-.08.1-.17.14-.27.04-.1.06-.19.07-.28 0-.05.01-.11.01-.19zm1.65-1.49c-.07 0-.13-.01-.17-.02.22.29.37.6.45.92.09.32.11.65.06.99-.01.11-.04.23-.08.36-.04.13-.1.25-.17.35-.07.1-.16.19-.27.25-.11.06-.24.08-.39.06a.696.696 0 01-.33-.13.721.721 0 01-.19-.24c-.04-.09-.07-.2-.08-.31v-.32c.02-.13.05-.27.11-.39.06-.13.13-.24.22-.33a.91.91 0 01.78-.25c-.06-.18-.13-.36-.21-.54a2.55 2.55 0 00-.3-.5.361.361 0 01-.13-.11.192.192 0 01-.04-.12c0-.04.02-.07.05-.09a.23.23 0 01.15-.02c.06.04.14.07.23.09.09.02.19.03.29.03.1 0 .2 0 .29-.03a.69.69 0 00.23-.09c.04.02.08.07.1.14.02.08.02.14 0 .18-.03.05-.08.08-.15.1-.07.02-.15.03-.23.03-.08 0-.16 0-.24-.01zm0 1.19c-.11-.01-.2 0-.27.07a.71.71 0 00-.19.23c-.05.09-.09.19-.12.3-.03.11-.05.2-.06.27 0 .05-.01.11-.02.18v.21c0 .07.02.13.04.18.02.05.06.08.12.09.09.02.17-.01.23-.08s.11-.16.15-.26c.04-.1.07-.22.09-.33.02-.12.03-.21.04-.29.01-.1.02-.19.02-.28 0-.09 0-.18-.02-.28h-.01zm2.09.59v.24c-.02.12-.04.25-.08.4s-.1.28-.17.39c-.07.12-.17.21-.28.29a.67.67 0 01-.43.08.672.672 0 01-.31-.12.525.525 0 01-.17-.22.882.882 0 01-.07-.29c0-.1 0-.21.01-.3s.03-.2.06-.34.07-.27.13-.39.13-.22.22-.3c.09-.08.2-.11.34-.1.02 0 .04 0 .07.01.02 0 .04.01.06.02a.19.19 0 01.1-.05h.12c.09.01.16.05.22.12.06.07.1.15.13.25s.05.19.06.29zm-.29.15v-.22c0-.07-.02-.14-.04-.21a.479.479 0 00-.07-.16l-.06.03c-.02 0-.05.01-.07 0-.02 0-.04 0-.07-.02h-.04c-.05.06-.09.13-.13.21-.04.08-.07.16-.09.25-.03.09-.05.17-.06.26-.02.09-.03.17-.04.24 0 .02 0 .07-.01.13v.21c0 .07.01.14.03.2.01.06.03.09.06.09.06 0 .12-.01.19-.07.07-.05.13-.12.18-.2.06-.08.1-.17.14-.27.04-.1.06-.19.07-.28 0-.05.01-.11.01-.19zm2.77-.46a.507.507 0 00-.29-.11c-.07 0-.14 0-.2.02s-.09.05-.1.08c0 .03 0 .06.01.07.02.01.04.02.07.02h.2c.06.02.1.05.12.11.02.05.04.12.04.19v.21c0 .07-.01.13-.02.18 0 .08-.03.18-.05.29-.02.12-.06.23-.1.34-.04.11-.09.2-.15.27s-.12.11-.19.1c-.07 0-.11-.03-.14-.08a.342.342 0 01-.04-.18v-.21c0-.07.02-.14.03-.2 0-.05.02-.12.03-.21l.06-.26c.03-.09.06-.17.09-.24.04-.07.08-.13.12-.16 0-.08-.04-.13-.09-.15-.05-.02-.1-.04-.15-.04-.09-.01-.17 0-.23.05s-.11.11-.15.18c-.04.07-.07.15-.09.23-.02.08-.04.15-.06.21-.08 0-.15 0-.22-.01-.07 0-.14-.01-.21-.01.02-.14.05-.27.07-.4l.06-.4v-.08s-.05-.06-.09-.08l-.12-.03c-.07 0-.13 0-.18.02-.02.01-.04.06-.07.14-.03.08-.06.19-.09.32s-.06.27-.09.42c-.03.15-.06.29-.08.43-.02.14-.05.26-.06.37-.02.11-.03.18-.03.22 0 .07.01.12.07.16.05.04.11.06.18.07.07 0 .13 0 .19-.02s.1-.06.1-.11l.11-.82.34.03s.03 0 .04.02c.02 0 .02.02.03.03l-.02.08c-.01.1-.02.21-.01.31 0 .1.02.2.06.29.04.09.09.17.17.23.08.06.18.1.32.12.17.02.32 0 .44-.09.12-.08.21-.19.29-.32.08-.13.13-.27.17-.42.04-.15.06-.28.08-.4.01-.09.02-.19.01-.28 0-.1-.02-.19-.05-.27a.51.51 0 00-.15-.21zm2.93.04s.04.1.04.17v1.05c0 .35-.04.7-.08 1.05-.02.15-.06.33-.11.53s-.13.39-.23.57-.23.32-.38.44c-.15.11-.33.16-.55.13a.581.581 0 01-.52-.52v-.27c.01-.12.06-.25.13-.41.07-.16.17-.3.28-.43.11-.13.24-.24.38-.33a.6.6 0 01.54-.07l.05-.79c-.03.06-.07.13-.11.2-.04.07-.08.13-.13.19a.463.463 0 01-.42.16.403.403 0 01-.21-.08.327.327 0 01-.11-.15.406.406 0 01-.04-.19c0-.07 0-.14.01-.21 0-.06.02-.13.03-.22.01-.09.04-.18.07-.26a.66.66 0 01.12-.22c.05-.06.12-.08.2-.07.02 0 .05.02.07.04.03.02.04.05.03.07-.04.1-.07.2-.1.31-.02.1-.04.21-.06.32 0 .07-.02.15-.02.22s.01.15.04.22c.05-.05.11-.12.19-.23.07-.11.14-.23.2-.36.07-.13.12-.25.17-.37.05-.12.07-.22.08-.29v-.15c0-.05.02-.08.05-.11.03-.03.09-.03.18-.02.08.01.13.04.16.08zm-.5 2.07h-.06c-.02 0-.04 0-.05-.01-.09.05-.17.12-.25.21-.08.1-.15.21-.22.32a2.477 2.477 0 00-.27.72c-.02.1-.03.2-.02.27 0 .07.04.11.08.12.11.01.21-.04.3-.16s.17-.27.23-.44c.06-.17.12-.36.16-.55.04-.19.07-.35.09-.48zm5.61-.71v.24c-.02.12-.04.25-.08.4-.04.14-.1.28-.17.39-.07.12-.17.21-.28.29a.67.67 0 01-.43.08.672.672 0 01-.31-.12.525.525 0 01-.17-.22.845.845 0 01-.05-.17c-.09.1-.19.18-.31.24s-.24.09-.37.07c-.16-.02-.27-.07-.34-.16s-.11-.18-.14-.3-.05-.23-.06-.36a1.21 1.21 0 00-.08-.34c-.02.09-.04.19-.06.3-.02.12-.03.22-.04.3 0 .06-.01.12-.01.17 0 .05 0 .1-.02.14-.01.04-.04.07-.09.09-.04.02-.11.02-.2.01-.07 0-.13-.03-.19-.06a.156.156 0 01-.07-.16c.02-.18.05-.38.09-.58.03-.21.07-.4.12-.58.02-.07.03-.15.05-.26.02-.1.04-.2.07-.3.03-.09.08-.17.13-.23.06-.06.14-.08.25-.07.04 0 .09.02.14.06.05.03.06.1.04.2-.02.11-.05.22-.08.33-.03.12-.06.23-.08.34.07-.05.14-.12.21-.2.07-.08.14-.16.22-.24.08-.07.16-.13.25-.18.09-.05.18-.07.29-.05.18.02.25.11.23.27 0 .05-.02.09-.03.11-.01.03-.05.04-.11.03-.02 0-.04 0-.08-.02-.03-.01-.05-.03-.04-.05 0-.03 0-.06.01-.08v-.08c-.07.04-.13.08-.18.14l-.15.18c-.05.07-.11.13-.17.19a.8.8 0 01-.21.15c.06.05.12.12.16.19s.07.16.1.24c.03.09.05.17.07.26.02.09.04.17.06.24 0 0 .02.03.02.05 0 .02.02.04.04.04.06 0 .12-.01.19-.06.07-.05.14-.11.2-.18.06-.06.11-.13.16-.19v-.05c.01-.09.03-.2.06-.34s.07-.27.13-.39.13-.22.22-.3c.09-.08.2-.11.34-.1.02 0 .05 0 .07.02s.04.01.06.02a.19.19 0 01.1-.05h.12c.09.01.16.05.22.12.06.07.1.15.13.25s.05.19.06.29zm-.29.15v-.22c0-.07-.02-.14-.04-.21a.479.479 0 00-.07-.16l-.06.03c-.02 0-.05.01-.07 0-.02 0-.04 0-.07-.02h-.04c-.05.06-.09.13-.13.21-.04.08-.07.16-.09.25-.03.09-.05.17-.06.26-.02.09-.03.17-.04.24 0 .02 0 .07-.01.13v.21c0 .07.01.14.03.2.01.06.03.09.06.09.06 0 .12-.01.19-.07.07-.05.13-.12.18-.2.06-.08.1-.17.14-.27.04-.1.06-.19.07-.28 0-.05.01-.11.01-.19zm7.31.75v.24c-.02.12-.04.25-.08.4-.04.14-.1.28-.17.39-.07.12-.17.21-.28.29a.67.67 0 01-.43.08.672.672 0 01-.31-.12.525.525 0 01-.17-.22c-.03-.08-.05-.16-.06-.25-.04.05-.08.11-.13.16-.09.09-.18.16-.29.22-.1.06-.21.08-.31.07-.12-.01-.2-.05-.26-.13a.63.63 0 01-.1-.27c-.01-.1-.01-.22 0-.34.02-.12.03-.23.06-.32-.08.04-.14.07-.19.09-.05.02-.09.03-.12.04h-.16c0 .02-.01.04-.01.07 0 .02 0 .07-.01.13 0 .06-.01.12-.01.19s0 .13-.02.18c-.02.06-.05.1-.09.13-.04.03-.11.04-.21.03-.07 0-.13-.03-.18-.06-.06-.03-.08-.08-.07-.15 0-.03.01-.08.02-.15-.04.04-.08.08-.12.11-.08.06-.17.1-.27.13s-.2.04-.3.02a.503.503 0 01-.26-.09.517.517 0 01-.16-.17.849.849 0 01-.09-.22c-.02-.08-.03-.17-.03-.25-.04.03-.09.1-.14.18a.61.61 0 00-.08.3c-.04.02-.08.04-.13.04h-.15c-.05 0-.1-.02-.14-.04a.219.219 0 01-.1-.09c-.04-.06-.05-.14-.06-.25v-.34c0-.12.02-.24.04-.35.02-.11.03-.21.04-.28l-.17.13c0 .07 0 .14-.02.24 0 .09-.02.19-.04.29-.02.1-.04.2-.07.29-.03.09-.07.18-.13.25a.485.485 0 01-.5.19c-.1-.01-.2-.05-.29-.12-.09-.07-.13-.15-.11-.26 0-.06.03-.13.08-.21.04-.07.1-.15.16-.22s.13-.14.2-.2.13-.12.19-.18c.01-.08 0-.18 0-.29-.01-.11-.03-.22-.05-.32s-.05-.2-.08-.29a.81.81 0 00-.08-.18c0-.02.01-.03.04-.04.02-.01.05-.02.08-.02h.15c.08 0 .14.04.19.09.05.05.08.11.11.18s.05.14.06.22c.01.08.03.14.04.2.03-.04.07-.09.12-.14l.15-.15c.05-.05.1-.08.15-.12.05-.03.1-.04.13-.04.05 0 .09.02.14.04.05.02.08.05.09.1v.25c0 .12-.02.25-.03.39-.01.14-.03.28-.04.41-.01.13-.02.23-.02.3.04-.04.09-.08.13-.13.04-.04.08-.09.11-.13.01-.08.03-.19.06-.33s.08-.27.14-.4c.06-.13.13-.24.22-.32.09-.09.2-.12.32-.11.07 0 .15.04.23.08.08.04.11.11.1.19 0 .07-.04.14-.09.21-.05.07-.1.13-.17.2-.06.06-.12.12-.18.17-.06.05-.11.09-.14.13 0 .06-.02.15-.03.27s-.02.22-.02.33c0 .11.02.2.04.29.03.09.08.13.16.14.06 0 .13 0 .2-.05.07-.04.13-.1.19-.16s.11-.13.15-.19c.04-.07.07-.12.08-.16h.04c.02-.1.04-.2.06-.31.03-.14.06-.27.09-.4s.06-.24.08-.33c.03-.09.05-.16.07-.19.04-.02.07-.03.11-.04h.12c.06 0 .11.03.15.05s.05.07.05.13c-.02.17-.05.34-.09.5-.04.17-.07.33-.1.5.05 0 .1 0 .15-.02s.1-.05.15-.08c.05-.03.09-.07.13-.11l.11-.11c.01-.05.03-.12.05-.22.02-.1.06-.19.1-.28.04-.09.09-.17.14-.24.06-.07.12-.09.19-.08.04 0 .08.02.13.03.05.02.07.05.07.09 0 0 0 .02-.01.03 0 .01-.02.03-.02.03-.03.08-.07.17-.11.29-.04.11-.07.23-.11.35l-.09.37c-.03.12-.04.24-.05.34v.24c0 .06.04.1.08.1.07 0 .14-.01.21-.07.07-.05.13-.12.18-.19.05-.07.1-.15.14-.22l.03-.06c.01-.07.02-.14.04-.23.03-.14.07-.27.13-.39s.13-.22.22-.3c.09-.08.2-.11.34-.1.02 0 .05 0 .07.02s.04.01.06.02a.19.19 0 01.1-.05h.12c.09.01.16.05.22.12.06.07.1.15.13.25s.05.19.06.29zm-4.26-.56s.06-.04.11-.09a.61.61 0 00.18-.33c0-.05-.01-.09-.06-.11-.02 0-.04.01-.06.05-.02.04-.05.1-.07.16-.02.06-.04.13-.06.19-.02.06-.03.1-.03.13zm-1.96.48s-.08.08-.14.15c-.06.07-.1.14-.15.22-.04.08-.07.15-.08.21-.01.06.01.09.07.1.03 0 .06-.02.1-.07.03-.05.06-.11.09-.18.03-.07.05-.15.07-.23.02-.08.03-.15.04-.21zm5.93.23v-.22c0-.07-.02-.14-.04-.21a.479.479 0 00-.07-.16l-.06.03c-.02 0-.05.01-.07 0-.02 0-.04 0-.07-.02h-.04c-.05.06-.09.13-.13.21-.04.08-.07.16-.09.25-.03.09-.05.17-.06.26-.02.09-.03.17-.04.24 0 .02 0 .07-.01.13v.21c0 .07.01.14.03.2.01.06.03.09.06.09.06 0 .12-.01.19-.07.07-.05.13-.12.18-.2.06-.08.1-.17.14-.27.04-.1.06-.19.07-.28 0-.05.01-.11.01-.19zm2.97 1.7c-.01-.13 0-.28 0-.45.01-.16.03-.34.06-.52l.09-.54.09-.54c0-.02 0-.03-.03-.05-.02-.01-.05-.03-.08-.03s-.06-.01-.1-.02h-.07c-.02.05-.05.11-.09.2-.03.09-.07.19-.11.3-.04.11-.08.22-.12.34-.04.12-.09.22-.14.31-.05.09-.1.16-.14.22-.05.06-.1.08-.15.07-.06 0-.08-.06-.07-.17 0-.1.03-.23.06-.37.03-.14.07-.3.11-.46.04-.16.07-.31.08-.43 0-.05-.02-.08-.08-.1-.06-.02-.1-.03-.14-.04-.06 0-.12.03-.19.12s-.14.2-.22.33c-.08.14-.15.28-.23.44-.08.16-.16.3-.23.44-.08.14-.15.25-.22.33-.07.09-.14.13-.2.12-.05 0-.09-.05-.12-.12a.587.587 0 01-.04-.23c0-.08.02-.16.06-.22.03-.07.09-.09.16-.08.04 0 .07.03.08.07v.06c.09.01.16 0 .2-.04.04-.04.05-.09.05-.15s-.03-.11-.08-.16a.31.31 0 00-.18-.09c-.13-.02-.24 0-.32.05-.09.05-.15.11-.2.2a.66.66 0 00-.09.28c0 .1 0 .2.03.29.03.09.08.17.15.24.07.07.15.11.26.12.1.01.2-.02.29-.08.09-.07.17-.16.25-.26.07-.1.14-.21.2-.32.06-.11.11-.2.15-.28 0 .08-.02.17-.03.27-.01.1 0 .2 0 .3.01.1.04.18.09.25.04.07.12.11.21.13.08.01.16 0 .23-.03s.13-.07.17-.12c.05-.05.09-.11.13-.17.04-.06.07-.12.1-.18-.01.07-.02.13-.03.18s-.01.1-.02.15-.01.1-.01.14c0 .05 0 .1-.02.17 0 .08 0 .13.04.16s.09.05.16.06c.03 0 .08 0 .14-.01.06-.01.1-.03.1-.07zm1.78-1.99s.04.1.04.17v1.05c-.01.35-.04.7-.08 1.05-.02.15-.06.33-.11.53s-.13.39-.23.57c-.1.18-.23.32-.38.44-.15.11-.33.16-.55.13a.581.581 0 01-.52-.52c-.01-.09 0-.18 0-.27.01-.12.06-.25.13-.41.07-.16.17-.3.28-.43.11-.13.24-.24.38-.33a.6.6 0 01.54-.07l.05-.79c-.03.06-.07.13-.11.2-.04.07-.08.13-.13.19a.463.463 0 01-.42.16.403.403 0 01-.21-.08.327.327 0 01-.11-.15.406.406 0 01-.04-.19c0-.07 0-.14.01-.21 0-.06.02-.13.03-.22s.04-.18.07-.26a.66.66 0 01.12-.22c.05-.06.12-.08.2-.07.02 0 .05.02.07.04.03.02.04.05.03.07-.04.1-.07.2-.1.31-.02.1-.04.21-.06.32 0 .07-.02.15-.02.22s.01.15.04.22c.05-.05.11-.12.19-.23.07-.11.14-.23.2-.36.07-.13.12-.25.17-.37.05-.12.07-.22.08-.29v-.15c0-.05.02-.08.05-.11.03-.03.09-.03.18-.02.08.01.13.04.16.08zm-.5 2.07h-.06c-.02 0-.04 0-.05-.01-.09.05-.17.12-.25.21-.08.1-.15.2-.22.32a2.477 2.477 0 00-.27.72c-.02.11-.03.2-.02.27 0 .07.04.11.08.12.11.01.21-.04.3-.16s.17-.27.23-.44.12-.36.16-.55c.04-.19.07-.35.09-.48zm4.92-1.41s-.05-.03-.08-.03-.06-.01-.1-.02h-.07c-.02.05-.05.11-.09.2-.03.09-.07.19-.11.3-.04.11-.08.22-.12.34-.04.12-.09.22-.14.31-.05.09-.1.16-.14.22-.05.06-.1.08-.15.07-.06 0-.08-.06-.07-.17 0-.1.03-.23.06-.37.03-.14.07-.3.11-.46.04-.16.07-.31.08-.43 0-.05-.02-.08-.08-.1-.06-.02-.1-.03-.14-.04-.06 0-.12.03-.19.12s-.14.2-.22.33c-.08.14-.15.28-.23.44-.08.16-.16.3-.23.44-.08.14-.15.25-.22.33-.07.09-.14.13-.2.12-.05 0-.09-.05-.12-.12s-.04-.15-.04-.23c0-.08.02-.16.06-.22.03-.07.09-.09.16-.08.04 0 .07.03.08.07v.06c.09.01.16 0 .2-.04.04-.04.05-.09.05-.15s-.03-.11-.08-.16a.31.31 0 00-.18-.09c-.13-.02-.24 0-.32.05-.09.05-.15.11-.2.2a.66.66 0 00-.09.28c0 .1 0 .2.03.29.03.09.08.17.15.24.07.07.15.11.26.12.1.01.2-.02.29-.08.09-.07.17-.16.25-.26.07-.1.14-.21.2-.32.06-.11.11-.2.15-.28 0 .08-.02.17-.03.27-.01.1 0 .2 0 .3.01.1.04.18.09.25.05.07.12.11.21.13.08.01.16 0 .23-.03s.13-.07.17-.12c.05-.05.09-.11.13-.17.04-.06.07-.12.1-.18-.01.07-.02.13-.03.18s-.01.1-.02.15-.01.1-.01.14c0 .05 0 .1-.02.17 0 .08 0 .13.04.16s.09.05.16.06c.03 0 .08 0 .14-.01.06-.01.1-.03.1-.07-.01-.13 0-.28 0-.45s.03-.34.06-.52l.09-.54.09-.54c0-.02 0-.03-.03-.05zm1.64.82v.24c-.02.12-.04.25-.08.4-.04.14-.1.28-.17.39-.07.12-.17.21-.28.29s-.26.1-.43.08a.672.672 0 01-.31-.12.525.525 0 01-.17-.22.882.882 0 01-.07-.29c0-.1 0-.21.01-.3s.03-.2.06-.34.07-.27.13-.39.13-.22.22-.3c.09-.08.2-.11.34-.1.02 0 .05 0 .07.01.02 0 .04.01.06.02a.19.19 0 01.1-.05h.12c.09.01.16.05.22.12.06.07.1.15.13.25s.05.19.06.29zm-.29.15v-.22c0-.07-.02-.14-.04-.21a.479.479 0 00-.07-.16l-.06.03c-.02 0-.05.01-.07 0-.02 0-.04 0-.07-.02h-.04c-.05.06-.09.13-.13.21-.04.08-.07.16-.09.25s-.05.17-.06.26c-.02.09-.03.17-.04.24 0 .02 0 .07-.01.13v.21c0 .07.01.14.03.2.01.06.03.09.06.09.06 0 .12-.01.19-.07.07-.05.13-.12.18-.2.06-.08.1-.17.14-.27.04-.1.06-.19.07-.28 0-.05.01-.11.01-.19zm3.19-.39s-.05-.03-.08-.03-.06-.01-.1-.02h-.07c-.02.05-.05.11-.09.2-.03.09-.07.19-.11.3-.04.11-.08.22-.12.34-.04.12-.09.22-.14.31-.05.09-.1.16-.14.22-.05.06-.1.08-.15.07-.06 0-.08-.06-.07-.17 0-.1.03-.23.06-.37.03-.14.07-.3.11-.46.04-.16.07-.31.08-.43 0-.05-.02-.08-.08-.1-.06-.02-.1-.03-.14-.04-.06 0-.12.03-.19.12s-.14.2-.22.33c-.08.14-.15.28-.23.44-.08.16-.16.3-.23.44-.08.14-.15.25-.22.33-.07.09-.14.13-.2.12-.05 0-.09-.05-.12-.12a.587.587 0 01-.04-.23c0-.08.02-.16.06-.22.03-.07.09-.09.16-.08.04 0 .07.03.08.07v.06c.09.01.16 0 .2-.04.04-.04.05-.09.05-.15s-.03-.11-.08-.16a.31.31 0 00-.18-.09c-.13-.02-.24 0-.32.05-.09.05-.15.11-.2.2a.66.66 0 00-.09.28c0 .1 0 .2.03.29.03.09.08.17.15.24.07.07.15.11.26.12.1.01.2-.02.29-.08.09-.07.17-.16.25-.26.07-.1.14-.21.2-.32.06-.11.11-.2.15-.28 0 .08-.02.17-.03.27-.01.1 0 .2 0 .3.01.1.04.18.09.25s.12.11.21.13c.08.01.16 0 .23-.03s.13-.07.17-.12c.05-.05.09-.11.13-.17.04-.06.07-.12.1-.18-.01.07-.02.13-.03.18 0 .05-.01.1-.02.15 0 .05-.01.1-.01.14 0 .05 0 .1-.02.17 0 .08 0 .13.04.16s.09.05.16.06c.03 0 .08 0 .14-.01.06-.01.1-.03.1-.07-.01-.13 0-.28 0-.45.01-.16.03-.34.06-.52l.09-.54.09-.54c0-.02 0-.03-.03-.05zm7.02.44s.09 0 .13-.03a.338.338 0 00.17-.21c.02-.04.02-.08.02-.12 0-.05-.02-.08-.06-.08-.04 0-.08-.01-.13-.02-.09-.01-.16 0-.19.06-.03.05-.06.11-.07.19v.14c0 .04.05.06.13.07zm1.23 1.38c-.03.11-.08.22-.16.34-.08.12-.17.23-.28.34-.11.1-.23.18-.36.24-.13.06-.27.08-.4.06-.17-.02-.29-.09-.36-.19a.78.78 0 01-.13-.34c-.03.04-.06.08-.1.12-.07.07-.15.13-.24.17-.09.04-.2.06-.31.04-.19-.02-.31-.1-.36-.21a.815.815 0 01-.05-.42c.02-.15.05-.3.1-.45.05-.15.08-.3.1-.45-.07.05-.14.13-.22.24a3.065 3.065 0 00-.43 1.06v.13c0 .04 0 .08-.01.11s-.03.06-.07.07c-.03.02-.09.02-.17 0a.467.467 0 01-.2-.07.38.38 0 01-.09-.13.88.88 0 01-.02-.17c0-.06 0-.13.02-.19.02-.18.06-.36.11-.55.05-.18.09-.36.14-.54-.06.06-.12.15-.19.26-.07.11-.13.22-.19.34-.06.12-.11.24-.16.36-.04.12-.07.21-.08.3v.02s-.06.06-.11.06h-.13a.38.38 0 01-.18-.06.273.273 0 01-.09-.12c0-.02 0-.05-.01-.07-.04.05-.07.09-.12.14-.09.09-.18.16-.29.22-.1.06-.21.08-.31.07-.12-.01-.2-.05-.26-.13a.63.63 0 01-.1-.27c-.01-.1-.01-.22 0-.34.02-.12.03-.22.06-.32-.08.04-.14.07-.19.09-.05.02-.09.03-.12.04h-.16c0 .02-.01.04-.01.07 0 .02 0 .07-.01.13 0 .06-.01.12-.01.19s0 .13-.02.18c-.02.06-.05.1-.09.13-.04.03-.11.04-.21.03-.07 0-.13-.03-.18-.06-.06-.03-.08-.08-.07-.15 0-.04.02-.1.03-.19-.05.05-.09.09-.15.13a.966.966 0 01-.7.17c-.25-.03-.42-.12-.5-.27-.09-.15-.11-.33-.09-.54a2.281 2.281 0 01.29-.85c.08-.14.18-.26.3-.36.12-.1.25-.14.4-.12.12.01.2.06.26.14.06.08.08.17.06.27 0 .08-.03.16-.07.26-.04.09-.09.18-.15.26-.06.08-.14.15-.22.2-.08.05-.18.07-.27.06-.02.06-.03.12-.04.2-.01.08-.02.15-.01.23s.01.14.04.2c.02.06.06.1.11.12.09.03.18.03.28-.02.1-.05.18-.11.27-.19s.15-.16.2-.25c.05-.09.08-.15.09-.19h.02c.01-.06.02-.12.04-.19.03-.14.06-.27.09-.4s.06-.24.08-.33c.03-.09.05-.16.07-.19.04-.02.07-.03.11-.04h.12c.06 0 .11.03.15.05.04.03.05.07.05.13-.02.17-.05.34-.09.5-.04.17-.07.33-.1.5.05 0 .1 0 .15-.02s.1-.05.15-.08c.05-.03.09-.07.13-.11l.11-.11c.01-.05.03-.12.05-.22.02-.1.06-.19.1-.28.04-.09.09-.17.14-.24.06-.07.12-.09.19-.08.04 0 .08.02.13.03.05.02.07.05.07.09 0 0 0 .02-.01.03 0 .01-.02.03-.02.03-.03.08-.07.17-.11.29-.04.11-.07.23-.11.35l-.09.37c-.03.12-.04.24-.05.34v.24c.01.06.04.1.08.1.07 0 .14-.01.21-.07.07-.05.13-.12.18-.19.05-.07.1-.15.14-.22 0-.01.01-.02.02-.04.02-.14.05-.29.09-.44.06-.21.13-.42.21-.6.01-.04.05-.07.09-.07h.13c.04 0 .09.02.16.04s.09.06.08.12c-.01.11-.04.22-.08.33-.04.11-.07.22-.11.33.03-.06.06-.13.1-.2.04-.07.09-.13.14-.19.05-.06.12-.1.18-.14.07-.04.14-.05.23-.04.08.01.14.03.18.06.04.03.07.07.08.11.02.04.02.09.02.14v.16c.03-.05.06-.1.1-.16.04-.05.08-.09.12-.13.05-.04.1-.07.15-.09.06-.02.12-.03.2-.02.13.02.22.08.28.18.06.1.08.21.07.33 0 .07-.03.16-.05.27-.03.1-.05.21-.06.3-.02.1-.03.18-.03.26 0 .07.02.11.06.12.06 0 .11 0 .17-.04a.7.7 0 00.16-.14c.05-.06.09-.11.13-.18.03-.04.05-.08.07-.11v-.06c.02-.15.03-.28.05-.39 0-.04.01-.09.03-.15.01-.06.03-.11.06-.16a.4.4 0 01.1-.12c.04-.03.1-.04.17-.03.06 0 .11.03.15.06.05.03.08.07.08.12a3.4 3.4 0 00-.14 1.19c.02.12.06.19.13.19.08.01.17-.01.27-.07.09-.06.19-.13.27-.22.09-.09.16-.18.23-.27.07-.1.12-.18.15-.25.04 0 .07.02.11.05.03.03.05.05.04.08zm-7.52-.66c.06-.02.11-.06.16-.11s.09-.1.13-.16c.04-.06.07-.12.09-.19.02-.06.04-.13.05-.18v-.1c0-.03-.01-.06-.03-.1-.03.04-.07.09-.12.16-.04.06-.08.14-.12.21s-.07.16-.1.24c-.03.08-.05.16-.06.23z" fill="#585856" stroke-width="0"/><path d="M209.33 226.3c.35 0 .64.02.99 0l-1.02 1.95c-.12.23-.38.37-.64.33l-.49-.06 1.16-2.22zm10.13-7.1l-1.86.49v-.03c-.1.59-.67 3.39-2.31 4.66-1.91 1.48-4.22 1.71-6.28 1.45l-1.2 2.29c-.12.23-.38.37-.64.33l-.49-.06 1.42-2.71c-2.15-.43-3.9-1.33-4.47-1.75 0 0-.08-.05-.07-.17 0-.07.07-.13.07-.13l.78-.6c-1.01-.62-2.06-2.6-1.38-4.5 0 0 .06-.15.2-.13.08.01.12.06.12.06l1.43 1.49a8.499 8.499 0 005.46 2.59h.08c.06 0 .11-.02.12-.08-.23-.04-.45-.1-.67-.16-1.18-.31-2.28-.82-3.24-1.6 0 0-2.5-2.31-1.65-6.31.01-.06.07-.24.14-.39.05-.1.16-.11.2-.11s.08.03.08.03c.61.43 1.36.97 2.16 1.57.04.03.09.06.13.1v-.01c.81.59 3.72 2.72 3.73 2.72 0 0-3.03-2.61-3.66-3.11.31-1.48.9-2.46.99-2.59.03-.05.14-.19.24-.28 0 0 .06-.06.15-.05s.14.09.14.09c.86 1.4 2.09 3.64 3.29 5.62.02.04.05.08.08.12.78-.46 1.25-.68 1.25-.68.59-.27 1.22-.36 1.89-.24 1.1.2 1.74 1.03 1.9 1.53l1.83.32c.13.02.13.19.02.22zm-2.9-.05a.759.759 0 00-.65-.84.753.753 0 00-.84.65c-.05.41.24.78.65.84.41.05.79-.24.84-.65zm-.3-.39c-.19-.02-.37.11-.39.3-.03.19.11.37.3.39.19.03.37-.11.39-.3a.342.342 0 00-.3-.39z" fill="#e10b17" stroke-width="0"/><g stroke-width="0"><path d="M74.54 101.38c0 20.58-16.69 37.27-37.27 37.27C16.69 138.65 0 121.96 0 101.38 0 80.8 16.69 64.11 37.27 64.11c7.93 0 15.65 2.53 22.04 7.22a37.274 37.274 0 0115.23 30.05z" fill="#339bd7"/><path d="M25.9 125.16a3.03 3.03 0 01.29-6.05 2.88 2.88 0 012.88 2.88c-.29 2.02-1.44 3.17-3.17 3.17m0-8.06a5.4 5.4 0 00-5.47 5.18c-.58 2.59 2.02 5.18 4.9 5.47h.58a5.4 5.4 0 005.47-5.18 5.23 5.23 0 00-4.97-5.47h-.5m23.33 8.06a3.03 3.03 0 11.292-6.052 3.03 3.03 0 01-.292 6.052m0-8.06a5.328 5.328 0 00-.25 10.65h.54a5.357 5.357 0 005.18-5.18 5.137 5.137 0 00-4.78-5.47c-.23-.01-.46-.01-.69 0m7.49-18.72a4.329 4.329 0 01-3.74 3.17l-25.92 2.59-5.76-16.99 38.01.58-2.59 10.66zM61.91 86c-.29-.29-.58-.29-.86-.58l-40.32-.58-1.15-3.17a5.531 5.531 0 00-5.18-3.74h-4.32c-.69 0-1.29.48-1.44 1.15 0 .69.48 1.29 1.15 1.44h4.32c1.31-.07 2.49.76 2.88 2.02l7.78 22.75-.58 1.44c-.67 1.72-.46 3.66.58 5.18a7.447 7.447 0 004.61 2.59h24.19c.64 0 1.15-.51 1.15-1.15s-.51-1.15-1.15-1.15H29.38a3.172 3.172 0 01-3.1-3.24c0-.37.08-.74.22-1.08l.58-1.15 26.21-2.59c2.77-.22 5.09-2.2 5.76-4.9l2.88-11.81c.29-.86.29-1.15 0-1.44" fill="#fff"/></g></svg>