<svg xmlns="http://www.w3.org/2000/svg" viewBox="0 0 250 400"><g id="Layer_2" data-name="Layer 2"><g id="Слой_1" data-name="Слой 1"><path fill="none" d="M0 0h250v400H0z"/><path d="M235 139.18c5.08 0 8.68 2 10.7 5.87a16 16 0 011.67 6.44v36.24H16.49v-36.24c0-5.13 1.93-8.61 5.9-10.65a16.2 16.2 0 016.47-1.66H235" fill="#ffd300"/><path d="M235 136.54H28.86s-15 0-15 15v173.87s-.19 18.38 15.46 26.6c4.9 2.57 102.63 48 102.63 48l101.91-47.86c8.25-4.05 16.15-11.8 16.15-26.73V151.49S250 136.54 235 136.54zM245.6 181v5H18.25v-34.51c0-4.37 1.59-7.32 4.85-9a14.52 14.52 0 015.76-1.52H235c4.4 0 7.37 1.59 9.09 4.84a14.14 14.14 0 011.52 5.72z" fill="#e52528"/><path d="M37.17 180.05A37.32 37.32 0 100 142.73a37.25 37.25 0 0037.17 37.32" fill="#e52527"/><path d="M25.83 166.64a3 3 0 113.1-3 3 3 0 01-3.1 3m0-8.29a5.34 5.34 0 105.58 5.33 5.45 5.45 0 00-5.58-5.33m23.57 8.29a3 3 0 113.1-3 3 3 0 01-3.1 3m0-8.29a5.34 5.34 0 105.6 5.33 5.45 5.45 0 00-5.58-5.33m7.36-18.71a4.16 4.16 0 01-3.78 3.14l-25.8 2.55-5.76-16.7 38 .53zM62 127.27a1.54 1.54 0 00-1-.47l-40.37-.54L19.5 123a5.67 5.67 0 00-5.33-3.67H10a1.18 1.18 0 100 2.36h4.16a3.22 3.22 0 013 2.08L25 146.45l-.62 1.36A5.47 5.47 0 0025 153a5.81 5.81 0 004.65 2.49h24.09a1.19 1.19 0 100-2.37H29.61a3.18 3.18 0 01-2.6-1.42 3.12 3.12 0 01-.31-2.84l.49-1.07 26.11-2.6a6.76 6.76 0 005.9-5l3-11.9a1 1 0 00-.18-1" fill="#fff"/></g></g></svg>