<svg version="1.1" id="Слой_1" xmlns="http://www.w3.org/2000/svg" x="0" y="0" viewBox="0 0 250 400" xml:space="preserve"><g id="Layer_2"><g id="Слой_1_1_"><path fill="none" d="M0 0h250v400H0z"/><path d="M235 93.6c5.1 0 8.7 2 10.7 5.9 1 2 1.6 4.2 1.7 6.4v71.7H16.5v-71.7c0-5.1 1.9-8.6 5.9-10.7 2-1 4.2-1.6 6.5-1.7H235" fill="#ffd300"/><path d="M235 90.9H28.9s-15 0-15 15v219.5s-.2 18.4 15.5 26.6c4.9 2.6 102.6 48 102.6 48l101.9-47.9c8.2-4 16.1-11.8 16.1-26.7V105.9s0-15-15-15zm10.6 44.5v40.5H18.2v-70c0-4.4 1.6-7.3 4.9-9 1.8-.9 3.8-1.4 5.8-1.5H235c4.4 0 7.4 1.6 9.1 4.8.9 1.8 1.4 3.7 1.5 5.7v29.5z" fill="#e52528"/><path d="M37.2 135.6c20.6.1 37.4-16.6 37.5-37.2 0-20.6-16.6-37.3-37.2-37.4S.1 77.5 0 98.2v.1c0 20.6 16.6 37.3 37.2 37.3" fill="#e52527"/><path d="M25.8 122.2c-1.7-.1-3-1.4-2.9-3.1.1-1.7 1.4-3 3.1-2.9 1.6.1 2.9 1.4 2.9 3 0 1.7-1.3 3-3 3h-.1m0-8.3c-2.9-.1-5.4 2.2-5.6 5.1s2.2 5.4 5.1 5.6h.5c2.9.1 5.4-2.2 5.6-5.1s-2.2-5.4-5.1-5.6h-.5m23.6 8.3c-1.7-.1-3-1.4-2.9-3.1.1-1.7 1.4-3 3.1-2.9 1.6.1 2.9 1.4 2.9 3 0 1.7-1.3 3-3 3h-.1m0-8.3c-2.9.1-5.2 2.7-5.1 5.6.1 2.9 2.7 5.2 5.6 5.1 2.8-.1 5.1-2.5 5.1-5.3-.1-3.1-2.6-5.4-5.6-5.4m7.4-18.7c-.4 1.8-2 3-3.8 3.1l-25.8 2.5-5.8-16.7 38 .5-2.6 10.6zM62 82.8c-.3-.3-.6-.4-1-.5l-40.4-.5-1.1-3.3c-.8-2.2-3-3.7-5.3-3.7H10c-.7-.1-1.2.4-1.3 1.1s.4 1.2 1.1 1.3h4.4c1.3 0 2.5.8 3 2.1L25 102l-.6 1.4c-.7 1.7-.5 3.6.6 5.2 1.1 1.5 2.8 2.4 4.7 2.5h24.1c.7 0 1.2-.5 1.2-1.2s-.5-1.2-1.2-1.2H29.6c-1 0-2-.5-2.6-1.4-.6-.8-.7-1.9-.3-2.8l.5-1.1 26.1-2.6c2.8-.3 5.2-2.3 5.9-5l3-11.9c.1-.4.1-.8-.2-1.1" fill="#fff"/></g></g></svg>